<svg width="350" height="150" viewBox="0 0 350 150" fill="none" xmlns="http://www.w3.org/2000/svg">
<g clip-path="url(#clip0_205_6177)">
<rect width="350" height="150" rx="10" fill="#221C3D"/>
<path d="M188.28 86.0347C180.83 100.435 182.016 118.425 189.523 132.782C197.03 147.139 210.273 157.992 225.067 164.601C239.861 171.211 256.171 173.836 272.357 174.518C281.957 174.916 291.605 174.652 301.085 173.112C311.937 171.34 322.781 167.75 331.243 160.728C337.142 155.832 341.649 149.476 345.605 142.915C354.446 128.241 360.835 112.243 367.205 96.3259C370.334 88.4827 373.483 80.5867 375.259 72.3259C378.619 56.6203 376.776 39.6859 369.23 25.5019C361.685 11.3179 348.288 0.148321 332.76 -3.90288C322.473 -6.58128 311.539 -6.16848 301.181 -3.77328C294.136 -2.14556 287.327 0.37397 280.92 3.72432C265.305 11.8843 253.008 24.9307 239.592 35.9851C233.697 40.8475 229.123 47.2843 223.118 52.2043C217.041 57.1915 210.605 61.7323 204.619 66.8299C198.173 72.3067 192.173 78.4795 188.28 86.0347Z" fill="#8162FF"/>
<path opacity="0.5" d="M188.28 86.0347C180.83 100.435 182.016 118.425 189.523 132.782C197.03 147.139 210.273 157.992 225.067 164.601C239.861 171.211 256.171 173.836 272.357 174.518C281.957 174.916 291.605 174.652 301.085 173.112C311.937 171.34 322.781 167.75 331.243 160.728C337.142 155.832 341.649 149.476 345.605 142.915C354.446 128.241 360.835 112.243 367.205 96.3259C370.334 88.4827 373.483 80.5867 375.259 72.3259C378.619 56.6203 376.776 39.6859 369.23 25.5019C361.685 11.3179 348.288 0.148321 332.76 -3.90288C322.473 -6.58128 311.539 -6.16848 301.181 -3.77328C294.136 -2.14556 287.327 0.373971 280.92 3.72432C265.305 11.8843 253.008 24.9307 239.592 35.9851C233.697 40.8475 229.123 47.2843 223.118 52.2043C217.041 57.1915 210.605 61.7323 204.619 66.8299C198.173 72.3067 192.173 78.4795 188.28 86.0347Z" fill="white"/>
<path d="M328.32 57.5137H375.461" stroke="#141518" stroke-width="0.48" stroke-linecap="round" stroke-linejoin="round"/>
<path d="M289.584 -8.92383V29.2746" stroke="#141518" stroke-width="0.48" stroke-linecap="round" stroke-linejoin="round"/>
<path d="M222.37 57.5137H194.055" stroke="#141518" stroke-width="0.48" stroke-linecap="round" stroke-linejoin="round"/>
<path d="M329.823 37.5541L347.914 19.4629" stroke="#141518" stroke-width="0.48" stroke-linecap="round" stroke-linejoin="round"/>
<path d="M340.517 19.9152L349.56 10.8672" stroke="#141518" stroke-width="0.48" stroke-linecap="round" stroke-linejoin="round"/>
<path d="M181.167 120.186L199.258 102.09" stroke="#141518" stroke-width="0.48" stroke-linecap="round" stroke-linejoin="round"/>
<path d="M191.856 102.542L200.904 93.4941" stroke="#141518" stroke-width="0.48" stroke-linecap="round" stroke-linejoin="round"/>
<path d="M331.469 28.9573L337.229 23.1973" stroke="#141518" stroke-width="0.48" stroke-linecap="round" stroke-linejoin="round"/>
<path d="M305.021 10.8574L306.168 14.563C306.234 14.8004 306.35 15.0208 306.508 15.2096C306.666 15.3984 306.863 15.5511 307.085 15.6574L310.2 17.0398L307.104 18.4078C306.882 18.5146 306.686 18.6675 306.528 18.8562C306.37 19.0449 306.254 19.2651 306.187 19.5022L305.04 23.2078L303.893 19.5022C303.827 19.2655 303.712 19.0454 303.555 18.8567C303.398 18.668 303.202 18.5149 302.981 18.4078L299.861 17.0398L302.962 15.667C303.183 15.5607 303.379 15.4079 303.537 15.2191C303.694 15.0303 303.809 14.8098 303.874 14.5726L305.021 10.8574Z" fill="white"/>
<path d="M319.718 27.0137L320.827 30.4937C320.892 30.718 321.005 30.9258 321.157 31.1029C321.31 31.2801 321.498 31.4226 321.71 31.5209L324.71 32.8073L321.72 34.0985C321.507 34.1962 321.319 34.3385 321.166 34.5158C321.014 34.6931 320.901 34.9011 320.837 35.1257L319.728 38.6057L318.619 35.1257C318.553 34.9007 318.44 34.6926 318.287 34.5153C318.134 34.3381 317.944 34.1959 317.731 34.0985L314.736 32.8073L317.731 31.5209C317.944 31.4226 318.133 31.2802 318.286 31.1031C318.439 30.9259 318.553 30.7182 318.619 30.4937L319.718 27.0137Z" fill="white"/>
<path opacity="0.7" d="M326.477 12.1914L326.842 13.3386C326.864 13.4128 326.901 13.4814 326.952 13.5401C327.002 13.5989 327.065 13.6463 327.135 13.6794L328.123 14.1018L327.135 14.529C327.065 14.5621 327.002 14.6096 326.952 14.6683C326.901 14.727 326.864 14.7956 326.842 14.8698L326.477 16.017L326.112 14.8698C326.091 14.7952 326.054 14.7262 326.003 14.6674C325.953 14.6085 325.89 14.5613 325.819 14.529L324.831 14.1018L325.819 13.6794C325.89 13.6471 325.953 13.5999 326.003 13.5411C326.054 13.4822 326.091 13.4132 326.112 13.3386L326.477 12.1914Z" fill="white"/>
<path d="M353.481 63.9453L355.358 70.0077C355.465 70.3958 355.654 70.7564 355.913 71.0653C356.171 71.3741 356.493 71.624 356.856 71.7981L361.924 74.0445L356.856 76.2861C356.492 76.4612 356.171 76.712 355.913 77.0217C355.654 77.3313 355.465 77.6926 355.358 78.0813L353.481 84.1437L351.604 78.0813C351.497 77.6926 351.308 77.3313 351.05 77.0217C350.792 76.712 350.47 76.4612 350.107 76.2861L345.038 74.0445L350.107 71.7981C350.47 71.624 350.791 71.3741 351.05 71.0653C351.308 70.7564 351.497 70.3958 351.604 70.0077L353.481 63.9453Z" fill="white"/>
<path d="M331.469 103.977L332.577 107.457C332.643 107.681 332.756 107.89 332.909 108.067C333.063 108.244 333.252 108.386 333.465 108.484L336.461 109.775L333.465 111.061C333.253 111.16 333.064 111.302 332.911 111.479C332.757 111.656 332.644 111.864 332.577 112.089L331.469 115.569L330.36 112.079C330.294 111.855 330.181 111.648 330.028 111.471C329.876 111.294 329.688 111.151 329.477 111.052L326.477 109.765L329.477 108.474C329.688 108.376 329.877 108.233 330.029 108.056C330.181 107.879 330.294 107.671 330.36 107.447L331.469 103.977Z" fill="white"/>
<path d="M350.242 97.7031L350.606 98.8503C350.629 98.9245 350.666 98.9932 350.717 99.0519C350.767 99.1106 350.829 99.158 350.899 99.1911L351.888 99.6183L350.899 100.041C350.829 100.074 350.767 100.121 350.717 100.18C350.666 100.239 350.629 100.307 350.606 100.382L350.242 101.529L349.877 100.382C349.855 100.307 349.817 100.239 349.767 100.18C349.716 100.121 349.654 100.074 349.584 100.041L348.6 99.5991L349.589 99.1719C349.659 99.1388 349.721 99.0914 349.772 99.0327C349.822 98.974 349.86 98.9053 349.882 98.8311L350.242 97.7031Z" fill="white"/>
<path d="M277.08 16.0176L277.915 18.9264C277.961 19.1081 278.043 19.2783 278.158 19.4262C278.273 19.5741 278.417 19.6965 278.582 19.7856L280.833 20.8656L278.582 21.9408C278.417 22.0298 278.273 22.1522 278.158 22.3001C278.043 22.4481 277.961 22.6183 277.915 22.8L277.08 25.7088L276.249 22.8C276.204 22.6183 276.121 22.4481 276.006 22.3001C275.891 22.1522 275.747 22.0298 275.582 21.9408L273.331 20.88L275.582 19.8C275.747 19.7109 275.891 19.5885 276.006 19.4406C276.121 19.2927 276.204 19.1225 276.249 18.9408L277.08 16.0176Z" fill="white"/>
<path d="M245.635 114.48C245.635 114.48 237.345 104.309 236.76 100.939L230.366 104.299L207.062 104.117C205.889 102.131 204.817 100.087 203.851 97.9921C202.929 95.7601 202.55 91.8817 207.777 90.8305C207.777 90.8305 210.854 85.3297 211.963 80.9233C213.072 76.5169 211.368 71.6065 213.005 68.3377C214.641 65.0689 215.328 64.2001 218.078 62.5777C220.829 60.9553 226.824 56.8177 229.536 55.1089C232.346 53.3166 235.389 51.9195 238.579 50.9569C241.555 50.1265 264.61 37.5169 264.61 37.5169L265.646 39.2305L265.469 37.5169L268.786 39.7729C268.786 39.7729 271.248 40.2001 275.904 38.5489C280.56 36.8977 289.915 31.5601 296.179 34.4113C302.443 37.2625 311.841 47.2033 314.693 50.1601C317.544 53.1169 323.582 59.1889 325.08 63.6673C326.578 68.1457 329.726 70.8241 331.32 72.5905C332.913 74.3569 340.521 80.3809 335.371 88.0657C330.221 95.7505 310.987 89.8321 310.987 89.8321C310.987 89.8321 311.861 85.2865 313.694 82.3297C312.777 80.3197 311.612 78.4316 310.229 76.7089C307.91 73.8289 299.899 64.7665 295.301 62.6065C290.702 60.4465 272.419 103.133 272.419 103.133L268.694 101.765L268.061 107.525C268.061 107.525 249.01 112.109 245.635 114.48Z" fill="#8162FF"/>
<path opacity="0.2" d="M291.062 45.1299C296.683 44.4483 302.347 47.0499 306.423 50.9619C310.498 54.8739 313.176 60.0483 315.298 65.2995C316.81 69.0522 318.074 72.9005 319.08 76.8195C322.781 75.7875 327.216 75.4995 330.936 76.4403C328.373 77.1555 325.752 77.3427 322.819 78.5043C325.656 78.5283 328.541 78.9411 331.075 80.2179C333.61 81.4947 335.751 83.7315 336.442 86.4819C336.504 86.7459 336.413 87.1587 336.154 87.0771L332.477 92.2467L310.992 91.3875C310.992 91.3875 310.349 87.5475 313.699 82.3923C312.094 79.0851 309.999 76.0395 307.483 73.3587C303.115 68.5827 296.174 63.4611 296.174 63.4611L291.062 45.1299Z" fill="black"/>
<path opacity="0.2" d="M205.118 100.939C205.118 100.939 201.278 93.6476 210.576 91.3868C210.576 91.3868 213.283 89.174 214.128 86.1068C214.973 83.0396 215.088 66.182 227.568 63.95C240.048 61.718 246.034 59.0588 249.077 50.75C252.12 42.4412 269.933 49.1996 269.933 49.1996L277.757 89.558L268.061 107.548L245.635 114.48C245.635 114.48 236.995 103.396 234.777 96.3548C232.56 89.3132 216.331 101.467 216.331 101.467L208.209 104.947L205.118 100.939Z" fill="black"/>
<path d="M304.286 105.359L298.459 105.095L296.76 101.126L295.968 101.927L294.619 96.4119C294.619 96.4119 302.39 94.3863 308.006 90.3639C314.702 86.5239 326.573 81.1383 334.781 85.9239C334.781 85.9239 334.555 89.2551 334.301 91.3287C334.046 93.4023 333.365 96.6087 327.408 99.8055L306.931 104.274" fill="white"/>
<path d="M254.616 23.9958L246.864 17.8086L238.123 25.6326L227.563 31.6374L230.217 43.743C230.217 43.743 236.006 50.8854 238.579 53.7078C241.152 56.5302 240.806 56.7126 244.017 58.0278C247.229 59.343 254.837 59.8566 254.837 59.8566C256.18 59.4025 257.468 58.7987 258.677 58.0566C260.673 56.8326 261.24 52.911 261.24 52.911L264.24 50.223L264.653 45.399C265.48 43.2484 265.791 40.9334 265.56 38.6406L261.168 32.7126C261.168 32.7126 262.608 32.823 263.045 31.6326C263.481 30.4422 263.774 27.5046 263.774 27.5046C263.774 27.5046 263.822 26.0646 261.701 23.1462C259.579 20.2278 259.397 19.191 256.665 19.9062C253.934 20.6214 254.616 23.9958 254.616 23.9958Z" fill="white"/>
<path d="M268.061 98.9045C267.494 97.7861 261.557 90.0245 259.421 88.2293C259.421 88.2293 247.762 83.3525 245.189 84.0581L237.658 86.3429C237.658 86.3429 228.758 88.9685 226.618 90.0869C224.477 91.2053 220.915 92.0741 216.888 93.0197C212.861 93.9653 208.032 94.5797 207.322 97.9301C206.611 101.28 206.131 106.656 207.173 110.098C207.173 110.098 207.13 113.53 207.72 114.461C208.31 115.392 213 115.848 217.214 113.765C221.429 111.682 226.718 108.293 230.362 104.324L240.067 99.8789L246.23 104.928L249.739 105.639L252.859 103.536L255 104.928H256.853L257.362 102.288L252.859 96.5909L262.133 102.288L263.99 100.94L263.39 97.4837L266.75 100.94C266.75 100.94 268.627 100.028 268.061 98.9045ZM256.747 92.5013L259.19 93.1973L261.643 96.2261L256.747 92.5013Z" fill="white"/>
<path d="M251.669 42.4321C252.269 43.2001 252.446 44.0737 252.058 44.3521C251.669 44.6305 250.872 44.2753 250.267 43.5025C249.663 42.7297 249.49 41.8609 249.879 41.5825C250.267 41.3041 251.064 41.6593 251.669 42.4321Z" fill="#141518"/>
<path d="M241.603 48.1257C242.203 48.8985 242.381 49.7673 241.992 50.0697C241.603 50.3721 240.806 49.9881 240.201 49.2153C239.597 48.4425 239.424 47.5737 239.813 47.2713C240.201 46.9689 240.998 47.3529 241.603 48.1257Z" fill="#141518"/>
<path d="M254.616 51.9801C254.616 51.9801 257.016 50.3865 256.056 46.4121" stroke="#141518" stroke-width="0.48" stroke-linecap="round" stroke-linejoin="round"/>
<path d="M246.504 40.124C246.997 39.1915 247.737 38.4123 248.642 37.8714C249.548 37.3305 250.585 37.0487 251.64 37.0568" stroke="#141518" stroke-width="0.96" stroke-linecap="round" stroke-linejoin="round"/>
<path d="M240.394 44.3184C239.538 44.6449 238.766 45.1595 238.135 45.8241C237.505 46.4887 237.032 47.2864 236.75 48.1584" stroke="#141518" stroke-width="0.96" stroke-linecap="round" stroke-linejoin="round"/>
<path d="M242.52 45.8828C244.811 47.4363 246.56 49.6665 247.522 52.262C248.645 52.6173 249.82 52.7796 250.997 52.742L251.256 49.742" stroke="#141518" stroke-width="0.48" stroke-linecap="round" stroke-linejoin="round"/>
<path d="M225.446 32.8086C225.446 32.8086 225.446 37.6086 227.904 40.7478C230.179 43.6758 234.873 49.0422 235.555 49.8246C235.61 49.8852 235.662 49.9494 235.709 50.0166C236.256 50.7702 239.813 55.599 241.824 57.1062C243.624 58.455 251.697 59.5062 254.491 59.8182C255.106 59.8885 255.727 59.7589 256.262 59.4486L258.662 58.0374C259.239 57.7013 259.679 57.1728 259.905 56.5446L262.401 49.6806C262.515 49.3732 262.574 49.0483 262.574 48.7206V44.5494C262.575 44.2031 262.511 43.8598 262.387 43.5366L259.387 35.655" stroke="#141518" stroke-width="0.48" stroke-linecap="round" stroke-linejoin="round"/>
<path d="M261.24 32.8086C261.24 32.8086 262.157 34.959 265.56 38.6502" stroke="#141518" stroke-width="0.48" stroke-linecap="round" stroke-linejoin="round"/>
<path d="M295.733 96.1346C295.733 96.1346 302.194 93.8882 306.739 91.0802C311.285 88.2722 326.127 81.0578 335.059 85.733L334.901 86.5826C334.634 88.0872 334.52 89.615 334.56 91.1426C334.613 93.8738 333.379 96.2258 327.663 99.6194C320.52 100.512 304.579 105.192 304.579 105.192" stroke="#141518" stroke-width="0.48" stroke-linecap="round" stroke-linejoin="round"/>
<path d="M240.231 100.229C238.085 100.622 234.855 103.219 233.803 105.134C232.752 107.049 232.133 109.176 231.077 111.086C229.804 113.372 227.943 115.276 225.687 116.601C222.749 118.32 219.178 119.035 216.725 121.401C215.481 122.658 214.541 124.184 213.979 125.861C212.529 129.869 212.654 134.279 214.329 138.199C216.004 142.119 219.104 145.258 223.003 146.981" stroke="#141518" stroke-width="0.96" stroke-linecap="round" stroke-linejoin="round"/>
<path d="M241.589 85.3672C241.589 85.3672 229.934 87.9832 225.446 90.7144C220.958 93.4456 208.81 92.4904 207.168 98.356C205.526 104.222 207.168 110.097 207.168 110.097C207.168 110.097 206.76 113.519 207.715 114.479C208.67 115.439 218.501 116.942 229.829 104.658C229.829 104.658 236.52 100.593 239.933 100.305" stroke="#141518" stroke-width="0.48" stroke-linecap="round" stroke-linejoin="round"/>
<path d="M239.933 86.7503C239.933 86.7503 243.057 83.3471 246.465 84.1967C249.873 85.0463 257.822 87.0767 259.425 88.2287C261.029 89.3807 267.859 97.5407 268.065 98.9039C268.272 100.267 266.765 100.939 266.765 100.939L259.19 93.1967L254.621 91.7567" stroke="#141518" stroke-width="0.48" stroke-linecap="round" stroke-linejoin="round"/>
<path d="M256.114 92.2227L263.386 97.5027L263.986 100.954L262.128 102.303C262.128 102.303 254.582 97.2723 251.741 96.0627" stroke="#141518" stroke-width="0.48" stroke-linecap="round" stroke-linejoin="round"/>
<path d="M252.125 96.2246L257.357 102.287L256.848 104.927H254.995L246.226 99.2246" stroke="#141518" stroke-width="0.48" stroke-linecap="round" stroke-linejoin="round"/>
<path d="M233.4 97.252C233.942 98.7976 236.712 99.0184 238.939 99.4264C241.166 99.8344 246.235 104.927 246.235 104.927L249.749 105.638L252.864 103.535" stroke="#141518" stroke-width="0.48" stroke-linecap="round" stroke-linejoin="round"/>
<path d="M238.569 86.1021C238.569 86.1021 236.045 74.8941 230.985 68.6973" stroke="#141518" stroke-width="0.48" stroke-linecap="round" stroke-linejoin="round"/>
<path d="M239.933 85.4829C239.933 85.4829 242.496 79.8333 238.57 71.8125" stroke="#141518" stroke-width="0.48" stroke-linecap="round" stroke-linejoin="round"/>
<path d="M236.76 51.4082C231.518 52.7522 224.76 59.1746 217.08 63.149C211.401 66.0818 212.577 73.253 212.28 78.6482C211.982 84.0434 207.773 90.8546 207.773 90.8546C207.773 90.8546 203.971 91.6994 203.409 94.7522C202.848 97.805 206.457 103.243 206.457 103.243" stroke="#141518" stroke-width="0.48" stroke-linecap="round" stroke-linejoin="round"/>
<path d="M236.76 101.447C236.76 101.447 241.728 111.729 245.645 114.052" stroke="#141518" stroke-width="0.48" stroke-linecap="round" stroke-linejoin="round"/>
<path d="M224.016 91.3864C224.016 91.3864 218.222 88.7512 212.976 89.8024" stroke="#141518" stroke-width="0.48" stroke-linecap="round" stroke-linejoin="round"/>
<path d="M225.446 90.7148C223.891 88.9484 218.52 87.5996 218.52 87.5996" stroke="#141518" stroke-width="0.48" stroke-linecap="round" stroke-linejoin="round"/>
<path d="M309.845 45.7441C309.845 45.7441 322.325 56.1217 325.685 65.1937C328.32 72.3265 342.85 78.9937 334.829 88.8001" stroke="#141518" stroke-width="0.48" stroke-linecap="round" stroke-linejoin="round"/>
<path d="M310.987 88.7991C311.282 86.7783 311.995 84.8411 313.08 83.1111C314.952 79.9287 324.562 79.2711 329.837 80.9463" stroke="#141518" stroke-width="0.48" stroke-linecap="round" stroke-linejoin="round"/>
<path d="M260.453 64.3147C260.453 64.5805 260.374 64.8404 260.226 65.0614C260.078 65.2824 259.869 65.4547 259.623 65.5564C259.377 65.6581 259.107 65.6847 258.846 65.6329C258.586 65.581 258.346 65.453 258.158 65.2651C257.97 65.0771 257.842 64.8376 257.79 64.5769C257.739 64.3162 257.765 64.046 257.867 63.8004C257.969 63.5548 258.141 63.3449 258.362 63.1972C258.583 63.0495 258.843 62.9707 259.109 62.9707C259.465 62.9707 259.807 63.1123 260.059 63.3644C260.311 63.6164 260.453 63.9583 260.453 64.3147Z" fill="#141518"/>
<path d="M261.797 72.5999C261.797 72.8657 261.718 73.1255 261.57 73.3466C261.423 73.5676 261.213 73.7398 260.967 73.8416C260.722 73.9433 260.451 73.9699 260.191 73.918C259.93 73.8662 259.69 73.7382 259.503 73.5502C259.315 73.3623 259.187 73.1228 259.135 72.8621C259.083 72.6014 259.109 72.3311 259.211 72.0855C259.313 71.8399 259.485 71.63 259.706 71.4824C259.927 71.3347 260.187 71.2559 260.453 71.2559C260.809 71.2559 261.151 71.3975 261.403 71.6495C261.655 71.9016 261.797 72.2434 261.797 72.5999Z" fill="#141518"/>
<path d="M255.067 28.8376L254.827 22.9912C254.804 22.4938 254.928 22.0005 255.184 21.5734C255.44 21.1464 255.817 20.8046 256.267 20.5912L257.227 20.1448C257.787 19.8819 258.425 19.8345 259.018 20.0115C259.611 20.1886 260.118 20.5778 260.443 21.1048L263.405 25.9336C263.69 26.4028 263.816 26.9517 263.765 27.4984L263.472 30.4408C263.413 31.0297 263.149 31.5793 262.726 31.9934C262.303 32.4075 261.748 32.6598 261.158 32.7064L260.069 32.7928" stroke="#141518" stroke-width="0.48" stroke-linecap="round" stroke-linejoin="round"/>
<path d="M264.653 44.3179C266.165 41.8123 265.459 37.5547 265.459 37.5547L269.232 40.1227C269.232 40.1227 269.611 41.2843 269.232 43.8187" stroke="#141518" stroke-width="0.48" stroke-linecap="round" stroke-linejoin="round"/>
<path d="M269.534 40.08C273.472 39.4348 277.32 38.3246 280.997 36.7728C286.632 34.3728 290.923 31.7232 296.957 34.8528C300.216 36.5376 303.019 38.976 306.153 40.8576" stroke="#141518" stroke-width="0.48" stroke-linecap="round" stroke-linejoin="round"/>
<path d="M239.664 35.9327C239.664 35.9327 227.885 35.0975 223.858 31.2143C219.83 27.3311 220.046 15.9743 220.046 15.9743C220.356 17.3111 220.749 18.6273 221.222 19.9151C221.328 20.1935 221.443 20.4671 221.558 20.7215C222.422 22.5887 222.422 15.9743 222.422 15.9743L223.142 18.5615C223.142 18.5615 227.462 10.9439 230.472 8.92795C233.482 6.91195 246.288 7.34875 252.475 9.79195L258.514 19.9199C258.514 19.9199 255.586 19.9199 255.048 21.8687C254.875 24.1727 255.048 27.7775 255.048 27.7775C251.657 26.4174 248.796 24.0002 246.888 20.8847C246.888 20.8847 244.195 30.4799 239.664 35.9327Z" fill="#141518"/>
<path d="M227.683 32.8073C227.683 32.8073 232.003 39.2681 230.823 44.3273C230.823 44.3273 227.554 39.5753 226.647 38.5673C225.048 36.8009 224.074 29.2793 224.074 29.2793L227.683 32.8073Z" fill="#141518"/>
<path d="M315.053 81.1968C316.555 79.6608 318.6 78.7968 320.587 77.9904C322.33 77.2752 324.11 76.5504 325.992 76.416" stroke="#141518" stroke-width="0.48" stroke-linecap="round" stroke-linejoin="round"/>
<path d="M261.24 90.1016L269.136 91.3208L269.856 102.572L263.093 101.818L263.986 100.94L263.463 97.9208L266.76 100.94C267.151 100.763 267.481 100.476 267.712 100.115C267.943 99.7538 268.064 99.3334 268.061 98.9048C268.152 97.3016 261.24 90.1016 261.24 90.1016Z" fill="#141518"/>
<path d="M261.643 96.2248L259.185 93.196L256.747 92.5L261.643 96.2248Z" fill="#141518"/>
<path d="M260.525 101.447L255.581 100.228L252.854 96.5898L260.525 101.447Z" fill="#141518"/>
<path d="M262.752 79.9824C262.666 81.3306 263.101 82.6601 263.966 83.6976C264.822 84.5344 265.9 85.1076 267.072 85.3488C267.329 85.4474 267.603 85.4939 267.878 85.4857C268.153 85.4774 268.424 85.4146 268.675 85.3008C269.213 84.9744 269.371 84.2784 269.481 83.6592C269.961 80.9376 270.369 77.952 269.001 75.5568C268.493 74.6736 267.345 71.1312 266.352 70.9104C263.443 70.272 262.8 78 262.752 79.9824Z" fill="#141518"/>
<path d="M299.53 51.5991L301.623 60.9543C301.989 63.0997 301.789 65.3035 301.042 67.3479L301.483 70.7655L302.386 75.9447C302.386 75.9447 301.071 84.4695 298.296 88.3335C295.522 92.1975 295.215 90.7335 295.215 90.7335L296.271 101.716C292.62 103.918 288.465 105.144 284.203 105.277C277.411 105.364 269.856 102.546 269.856 102.546C269.821 98.7856 269.581 95.0296 269.136 91.2951C268.44 86.4903 267.571 81.3591 267.571 81.3591L264.912 77.9991L262.771 75.1191L261.24 70.1751L262.311 66.9207L262.863 66.3111C263.508 65.9742 264.191 65.7148 264.898 65.5383C265.733 65.3895 269.218 68.6967 269.218 68.6967L269.611 60.1047L270.447 50.9847L287.247 45.7383L295.699 48.3879L299.53 51.5991Z" fill="white"/>
<path d="M300.235 54.2969C300.235 54.2969 301.958 61.8137 301.838 62.7977C301.718 63.7817 301.041 68.3417 301.041 68.3417L302.337 75.4745C302.414 75.8983 302.4 76.3336 302.294 76.7513C301.733 78.9833 299.717 86.4809 297.115 90.4361C294.033 95.1209 278.054 92.8649 274.728 90.4025L271.459 79.8185" stroke="#141518" stroke-width="0.48" stroke-linecap="round" stroke-linejoin="round"/>
<path d="M286.742 80.2559C286.742 80.2559 289.089 83.6159 292.608 83.0495" stroke="#141518" stroke-width="0.48" stroke-linecap="round" stroke-linejoin="round"/>
<path d="M267.571 81.3594C267.571 81.3594 270.101 94.0506 269.856 102.575C269.856 102.575 276.806 105.225 283.493 105.311C290.179 105.398 296.28 101.74 296.28 101.74C295.757 98.409 295.498 91.5162 295.498 91.5162" stroke="#141518" stroke-width="0.48" stroke-linecap="round" stroke-linejoin="round"/>
<path d="M269.635 69.4983C270.062 71.6343 271.075 73.5447 271.483 75.6759C271.56 76.2978 271.768 76.8964 272.093 77.4327C272.659 78.2343 274.569 78.0039 275.486 77.6583C275.553 77.6583 274.761 72.4455 274.742 71.7591C274.651 69.7449 274.956 67.7324 275.64 65.8359C276.293 64.1655 276.921 62.5623 276.749 60.7335C276.561 58.7031 275.688 56.7879 274.795 54.9735C277.195 56.4271 279.963 57.1586 282.768 57.0807C287.16 56.8359 284.717 52.5687 284.717 52.5687C284.717 52.5687 297.278 56.2263 304.473 53.1783C311.669 50.1303 312.523 44.1543 310.713 41.3463C308.904 38.5383 297.557 42.2055 298.305 41.6919C299.265 41.0439 300.921 39.2919 300.48 38.0151C300.401 37.8115 300.277 37.6288 300.116 37.4814C299.956 37.334 299.763 37.2259 299.553 37.1655C297.768 36.6087 295.037 38.1879 293.472 38.8983C291.384 39.8583 289.329 40.8999 287.107 41.4807C283.08 42.5415 278.889 42.5079 274.766 42.6471C272.817 42.7143 270.883 42.8583 268.949 43.0407C267.273 43.1943 265.406 43.3527 264.091 44.5287C264.049 44.5634 264.01 44.6019 263.976 44.6439C262.2 46.7031 265.037 68.3991 265.037 68.3991L269.635 69.4983Z" fill="#141518"/>
<path d="M265.963 49.0895C265.963 49.0895 263.001 47.8367 261.062 49.6607C259.123 51.4847 262.43 68.6975 262.43 68.6975L266.467 68.6447L265.963 49.0895Z" fill="#141518"/>
<path d="M216.423 172.976H350.242L347.194 163.784C347.194 163.784 332.563 123.185 323.64 110.365L319.2 107.537L315.413 105.857L298.464 105.113L297.063 100.938C297.063 100.938 290.232 105.358 283.498 105.306C276.763 105.253 268.699 101.801 268.699 101.801L268.066 107.561C268.066 107.561 251.779 112.064 248.866 112.765C245.952 113.465 231 120.795 231 120.795C231 120.795 230.76 121.962 230.362 124.266C229.963 126.57 223.944 145.573 223.944 145.573L215.16 172.976H216.423Z" fill="#8162FF"/>
<path d="M291.859 66.3105C291.984 67.1553 292.133 67.9985 292.306 68.8401C292.507 69.8001 292.786 70.8513 293.563 71.4657C294.202 71.9457 295.095 72.0994 295.651 72.6898C295.932 73.0356 296.11 73.4537 296.165 73.896C296.219 74.3383 296.148 74.787 295.959 75.1905C295.574 75.9941 295.037 76.7161 294.379 77.317" stroke="#141518" stroke-width="0.48" stroke-linecap="round" stroke-linejoin="round"/>
<path d="M297.945 68.6959C297.945 69.6559 297.547 70.4671 297.057 70.4671C296.568 70.4671 296.169 69.6751 296.169 68.6959C296.169 67.7167 296.568 66.9199 297.057 66.9199C297.547 66.9199 297.945 67.7167 297.945 68.6959Z" fill="#141518"/>
<path d="M287.16 69.1325C287.16 70.1165 286.761 70.9085 286.272 70.9085C285.782 70.9085 285.384 70.1165 285.384 69.1325C285.384 68.1485 285.782 67.3613 286.272 67.3613C286.761 67.3613 287.16 68.1533 287.16 69.1325Z" fill="#141518"/>
<path d="M287.799 64.1849C287.799 64.1849 284.995 61.9577 281.616 65.1929" stroke="#141518" stroke-width="0.96" stroke-linecap="round" stroke-linejoin="round"/>
<path d="M294.917 63.8056C294.917 63.8056 298.047 62.0584 300.197 64.2616" stroke="#141518" stroke-width="0.96" stroke-linecap="round" stroke-linejoin="round"/>
<path d="M301.042 81.1869C301.042 81.1869 299.467 89.8269 294.917 90.1005C290.366 90.3741 291.331 86.1021 291.331 86.1021L287.798 85.4829C287.798 85.4829 286.882 89.6973 283.805 89.6973C280.728 89.6973 275.842 82.5933 274.829 74.0973L269.232 68.6973C269.232 68.6973 271.464 81.2637 272.981 85.4973L274.728 90.3933C274.728 90.3933 281.616 94.7517 288.6 96.2397C295.637 94.7661 296.328 91.7709 297.106 90.4509C297.883 89.1309 301.042 81.1869 301.042 81.1869Z" fill="#141518"/>
<path d="M266.165 48.3931C266.202 47.8721 266.357 47.3663 266.617 46.9133C266.877 46.4603 267.236 46.072 267.667 45.7771C268.532 45.1921 269.516 44.8068 270.547 44.6491C274.114 43.9675 277.781 44.6203 281.395 45.0187C285.01 45.4171 288.835 45.5323 292.085 43.9051C293.362 43.2555 294.499 42.3602 295.43 41.2704C296.361 40.1807 297.067 38.918 297.509 37.5547" stroke="white" stroke-width="0.48" stroke-linecap="round" stroke-linejoin="round"/>
<path d="M270.864 49.4629C271.39 49.0319 271.995 48.706 272.645 48.5029C275.251 47.6149 278.126 48.0565 280.805 48.7813C283.483 49.5061 286.085 50.5045 288.83 50.7013C290.61 50.7927 292.395 50.6767 294.149 50.3557C297.144 49.8757 300.158 49.1653 302.789 47.6437C305.419 46.1221 307.627 43.6933 308.333 40.7461" stroke="white" stroke-width="0.48" stroke-linecap="round" stroke-linejoin="round"/>
<path d="M268.061 51.0132C267.618 50.9765 267.175 51.0782 266.792 51.3043C266.409 51.5305 266.106 51.8699 265.925 52.2756C265.57 53.0919 265.406 53.9783 265.445 54.8676C265.379 59.0593 265.782 63.2452 266.645 67.3476" stroke="white" stroke-width="0.48" stroke-linecap="round" stroke-linejoin="round"/>
<path d="M271.694 80.4898C271.694 80.4898 269.942 81.997 268.723 81.9298C267.686 81.8626 263.923 76.7122 262.843 75.2098C262.656 74.9425 262.512 74.6478 262.416 74.3362L261.403 70.9234C261.216 70.3045 261.24 69.641 261.47 69.037L262.022 67.597C262.161 67.2284 262.372 66.8913 262.643 66.606C262.914 66.3207 263.24 66.0929 263.602 65.9362C264.144 65.7014 264.744 65.6349 265.324 65.7453C265.904 65.8557 266.438 66.138 266.856 66.5554L269.602 69.2962" fill="white"/>
<path d="M271.694 80.4898C271.694 80.4898 269.942 81.997 268.723 81.9298C267.686 81.8626 263.923 76.7122 262.843 75.2098C262.656 74.9425 262.512 74.6478 262.416 74.3362L261.403 70.9234C261.216 70.3045 261.24 69.641 261.47 69.037L262.022 67.597C262.161 67.2284 262.372 66.8913 262.643 66.606C262.914 66.3207 263.24 66.0929 263.602 65.9362C264.144 65.7014 264.744 65.6349 265.324 65.7453C265.904 65.8557 266.438 66.138 266.856 66.5554L269.602 69.2962" stroke="#141518" stroke-width="0.48" stroke-linecap="round" stroke-linejoin="round"/>
<path d="M298.301 106.093L297.057 100.938C297.057 100.938 289.406 105.689 284.203 105.301C279 104.912 270.859 103.102 268.694 101.801L268.061 107.561C268.061 107.561 274.781 112.976 283.32 112.755C291.859 112.534 298.301 106.093 298.301 106.093Z" stroke="#141518" stroke-width="0.48" stroke-linecap="round" stroke-linejoin="round"/>
<path d="M313.694 82.367C309.043 73.1078 301.262 67.5254 301.262 67.5254" stroke="#141518" stroke-width="0.48" stroke-linecap="round" stroke-linejoin="round"/>
<path d="M268.061 107.539L250.421 112.267C249.237 112.583 248.078 112.987 246.955 113.477C242.683 115.339 231.754 120.134 230.986 120.797C230.854 120.92 230.749 121.069 230.676 121.234C230.604 121.399 230.565 121.576 230.563 121.757C230.492 123.922 230.141 126.069 229.522 128.145L215.122 172.968" stroke="#141518" stroke-width="0.48" stroke-linecap="round" stroke-linejoin="round"/>
<path d="M350.242 172.978C338.28 135.83 328.44 117.84 324.835 111.931C323.939 110.461 322.649 109.272 321.11 108.499L317.174 106.526C316.008 105.946 314.732 105.619 313.43 105.566L298.301 104.938" stroke="#141518" stroke-width="0.48" stroke-linecap="round" stroke-linejoin="round"/>
<path d="M265.277 122.088C264.335 123.758 263.491 125.481 262.747 127.248" stroke="#141518" stroke-width="0.48" stroke-linecap="round" stroke-linejoin="round"/>
<path d="M272.933 110.428C270.532 113.628 268.301 116.952 266.251 120.388" stroke="#141518" stroke-width="0.48" stroke-linecap="round" stroke-linejoin="round"/>
<path d="M275.073 111.307C275.073 111.307 272.582 118.31 271.713 124.267" stroke="#141518" stroke-width="0.48" stroke-linecap="round" stroke-linejoin="round"/>
<path d="M299.448 118.838C300.085 120.08 300.618 121.372 301.041 122.702" stroke="#141518" stroke-width="0.48" stroke-linecap="round" stroke-linejoin="round"/>
<path d="M293.256 109.775C295.143 111.943 296.831 114.275 298.301 116.745" stroke="#141518" stroke-width="0.48" stroke-linecap="round" stroke-linejoin="round"/>
<path d="M290.04 111.307C290.04 111.307 292.603 118.78 292.594 122.702" stroke="#141518" stroke-width="0.48" stroke-linecap="round" stroke-linejoin="round"/>
<path opacity="0.3" d="M342.946 172.982H215.16L223.959 145.574C223.959 145.574 229.978 126.57 230.371 124.271C230.765 121.972 231.01 120.796 231.01 120.796C231.01 120.796 245.971 113.442 248.89 112.737C251.808 112.031 268.09 107.543 268.09 107.543L268.723 101.783C268.723 101.783 276.792 105.234 283.527 105.287C288.029 105.326 292.584 103.367 295.095 102.047L295.517 105.921C293.866 107.442 289.791 110.918 285.187 112.713C285.576 112.626 291.581 111.225 295.747 107.985V108.177C295.747 108.177 315.216 109.751 318.091 112.017C324.274 117.004 338.765 161.716 342.946 172.982Z" fill="black"/>
<path d="M361.234 179.03C359.189 177.317 357.35 176.208 356.112 173.717C353.846 169.152 353.088 163.848 352.546 158.837C351.058 145.008 348.754 154.632 348.754 154.632C348.86 157.786 348.7 160.942 348.274 164.069C347.482 170.237 345.797 176.069 339.782 178.949C339.629 179.015 339.499 179.124 339.406 179.263C339.313 179.402 339.262 179.564 339.259 179.731C339.259 181.171 344.266 182.309 350.443 182.309C356.621 182.309 361.627 181.157 361.627 179.731C361.619 179.592 361.579 179.457 361.51 179.336C361.442 179.215 361.348 179.11 361.234 179.03Z" fill="#8162FF" stroke="#141518" stroke-width="0.48" stroke-linecap="round" stroke-linejoin="round"/>
<path d="M363.677 154.891C361.277 165.869 352.157 173.193 343.277 171.254C340.302 170.584 337.624 168.967 335.645 166.646C331.719 162.149 329.972 155.126 331.556 147.888C333.956 136.915 343.076 129.59 351.951 131.525C355.791 132.365 358.988 134.822 361.143 138.245C363.96 142.661 365.031 148.699 363.677 154.891Z" stroke="#141518" stroke-width="0.48" stroke-linecap="round" stroke-linejoin="round"/>
<path d="M367.287 155.487C364.474 168.332 353.727 176.9 343.287 174.634C339.79 173.852 336.639 171.959 334.306 169.239C329.688 163.983 327.634 155.765 329.506 147.293C332.319 134.453 343.061 125.881 353.506 128.146C358.047 129.13 361.781 131.986 364.316 135.994C367.604 141.178 368.88 148.244 367.287 155.487Z" fill="#8162FF" stroke="#141518" stroke-width="0.48" stroke-linecap="round" stroke-linejoin="round"/>
<path opacity="0.5" d="M342.672 134.593C342.672 134.593 334.714 140.785 333.106 150.001C331.498 159.217 333.739 167.127 340.599 170.391C347.458 173.655 354.24 170.468 359.045 164.78C363.85 159.092 365.285 149.665 363.255 142.868C360.941 135.121 351.259 129.308 342.672 134.593Z" fill="white"/>
<path d="M363.677 154.891C361.277 165.869 352.157 173.194 343.277 171.254C340.302 170.584 337.624 168.967 335.645 166.646C332.842 162.216 331.757 156.182 333.111 149.986C335.511 139.013 344.631 131.688 353.511 133.622C356.487 134.294 359.164 135.913 361.143 138.235C363.96 142.661 365.031 148.699 363.677 154.891Z" stroke="#141518" stroke-width="0.48" stroke-linecap="round" stroke-linejoin="round"/>
<path d="M334.719 165.395C334.719 165.395 330.879 158.334 333.346 148.984C335.813 139.633 342.907 134.406 346.786 133.859C350.664 133.312 357.346 133.062 362.069 139.249C362.069 139.249 358.109 130.96 348.408 131.233C338.707 131.507 334.378 139.921 331.963 146.248C329.549 152.574 332.28 161.958 334.719 165.395Z" fill="#141518"/>
<path d="M340.599 149.185L347.458 142.326" stroke="#141518" stroke-width="0.48" stroke-linecap="round" stroke-linejoin="round"/>
<path d="M341.535 156.933L348.389 150.078" stroke="#141518" stroke-width="0.48" stroke-linecap="round" stroke-linejoin="round"/>
<path d="M341.535 151.737L354.375 138.893" stroke="#141518" stroke-width="0.48" stroke-linecap="round" stroke-linejoin="round"/>
<path d="M28.848 63.176C28.496 63.176 28.21 63.0953 27.99 62.934C27.7847 62.7727 27.66 62.56 27.616 62.296C27.572 62.0173 27.6233 61.7093 27.77 61.372L33.578 48.502C33.7687 48.0767 33.996 47.776 34.26 47.6C34.5387 47.4093 34.854 47.314 35.206 47.314C35.5433 47.314 35.844 47.4093 36.108 47.6C36.3867 47.776 36.6213 48.0767 36.812 48.502L42.642 61.372C42.8033 61.7093 42.862 62.0173 42.818 62.296C42.774 62.5747 42.6493 62.7947 42.444 62.956C42.2387 63.1027 41.9673 63.176 41.63 63.176C41.2193 63.176 40.8967 63.0807 40.662 62.89C40.442 62.6847 40.244 62.3767 40.068 61.966L38.638 58.644L39.826 59.414H30.542L31.73 58.644L30.322 61.966C30.1313 62.3913 29.9333 62.6993 29.728 62.89C29.5227 63.0807 29.2293 63.176 28.848 63.176ZM35.162 50.548L32.082 57.874L31.51 57.17H38.858L38.308 57.874L35.206 50.548H35.162ZM49.7097 67.18C48.9177 67.18 48.1477 67.1067 47.3997 66.96C46.6663 66.8133 45.999 66.586 45.3977 66.278C45.119 66.1313 44.9283 65.9553 44.8257 65.75C44.7377 65.5447 44.7083 65.332 44.7377 65.112C44.7817 64.9067 44.8697 64.7233 45.0017 64.562C45.1483 64.4007 45.3243 64.2907 45.5297 64.232C45.735 64.1733 45.9477 64.2027 46.1677 64.32C46.813 64.6427 47.4217 64.848 47.9937 64.936C48.5803 65.0387 49.079 65.09 49.4897 65.09C50.4723 65.09 51.2057 64.848 51.6897 64.364C52.1883 63.8947 52.4377 63.1907 52.4377 62.252V60.272H52.6357C52.4157 61.02 51.9537 61.6213 51.2497 62.076C50.5603 62.516 49.7757 62.736 48.8957 62.736C47.9277 62.736 47.0843 62.516 46.3657 62.076C45.647 61.6213 45.0897 60.9907 44.6937 60.184C44.2977 59.3773 44.0997 58.4387 44.0997 57.368C44.0997 56.5613 44.2097 55.8353 44.4297 55.19C44.6643 54.53 44.987 53.9653 45.3977 53.496C45.823 53.0267 46.329 52.6673 46.9157 52.418C47.517 52.154 48.177 52.022 48.8957 52.022C49.805 52.022 50.597 52.2493 51.2717 52.704C51.961 53.144 52.4083 53.7307 52.6137 54.464L52.3937 55.014V53.452C52.3937 52.9973 52.511 52.6527 52.7457 52.418C52.995 52.1833 53.3323 52.066 53.7577 52.066C54.1977 52.066 54.535 52.1833 54.7697 52.418C55.0043 52.6527 55.1217 52.9973 55.1217 53.452V61.922C55.1217 63.6673 54.6597 64.98 53.7357 65.86C52.8117 66.74 51.4697 67.18 49.7097 67.18ZM49.6437 60.646C50.2157 60.646 50.707 60.514 51.1177 60.25C51.5283 59.986 51.8437 59.612 52.0637 59.128C52.2983 58.6293 52.4157 58.0427 52.4157 57.368C52.4157 56.356 52.1663 55.564 51.6677 54.992C51.169 54.4053 50.4943 54.112 49.6437 54.112C49.0717 54.112 48.5803 54.244 48.1697 54.508C47.759 54.772 47.4363 55.146 47.2017 55.63C46.9817 56.114 46.8717 56.6933 46.8717 57.368C46.8717 58.38 47.121 59.1793 47.6197 59.766C48.1183 60.3527 48.793 60.646 49.6437 60.646ZM63.273 63.22C62.0557 63.22 61.007 62.9927 60.127 62.538C59.247 62.0833 58.565 61.438 58.081 60.602C57.6117 59.766 57.377 58.776 57.377 57.632C57.377 56.5173 57.6043 55.542 58.059 54.706C58.5283 53.87 59.1663 53.2173 59.973 52.748C60.7943 52.264 61.7257 52.022 62.767 52.022C63.5297 52.022 64.2117 52.1467 64.813 52.396C65.429 52.6453 65.9497 53.0047 66.375 53.474C66.815 53.9433 67.145 54.5153 67.365 55.19C67.5997 55.85 67.717 56.598 67.717 57.434C67.717 57.698 67.6217 57.9033 67.431 58.05C67.255 58.182 66.9983 58.248 66.661 58.248H59.599V56.664H65.781L65.429 56.994C65.429 56.3193 65.3263 55.7547 65.121 55.3C64.9303 54.8453 64.6443 54.5007 64.263 54.266C63.8963 54.0167 63.4343 53.892 62.877 53.892C62.261 53.892 61.733 54.0387 61.293 54.332C60.8677 54.6107 60.5377 55.014 60.303 55.542C60.083 56.0553 59.973 56.6713 59.973 57.39V57.544C59.973 58.7467 60.2517 59.6487 60.809 60.25C61.381 60.8367 62.217 61.13 63.317 61.13C63.6983 61.13 64.1237 61.086 64.593 60.998C65.077 60.8953 65.5317 60.7267 65.957 60.492C66.265 60.316 66.5363 60.2427 66.771 60.272C67.0057 60.2867 67.189 60.3673 67.321 60.514C67.4677 60.6607 67.5557 60.844 67.585 61.064C67.6143 61.2693 67.5703 61.482 67.453 61.702C67.3503 61.922 67.167 62.1127 66.903 62.274C66.3897 62.5967 65.7957 62.8387 65.121 63C64.461 63.1467 63.845 63.22 63.273 63.22ZM71.2588 63.176C70.8188 63.176 70.4815 63.0587 70.2468 62.824C70.0122 62.5747 69.8948 62.2227 69.8948 61.768V53.452C69.8948 52.9973 70.0122 52.6527 70.2468 52.418C70.4815 52.1833 70.8115 52.066 71.2368 52.066C71.6622 52.066 71.9922 52.1833 72.2268 52.418C72.4615 52.6527 72.5788 52.9973 72.5788 53.452V54.948L72.3368 54.398C72.6595 53.6207 73.1582 53.034 73.8328 52.638C74.5222 52.2273 75.2995 52.022 76.1648 52.022C77.0302 52.022 77.7415 52.1833 78.2988 52.506C78.8562 52.8287 79.2742 53.32 79.5528 53.98C79.8315 54.6253 79.9708 55.4467 79.9708 56.444V61.768C79.9708 62.2227 79.8535 62.5747 79.6188 62.824C79.3842 63.0587 79.0468 63.176 78.6068 63.176C78.1668 63.176 77.8222 63.0587 77.5728 62.824C77.3382 62.5747 77.2208 62.2227 77.2208 61.768V56.576C77.2208 55.74 77.0595 55.1313 76.7368 54.75C76.4288 54.3687 75.9448 54.178 75.2848 54.178C74.4782 54.178 73.8328 54.4347 73.3488 54.948C72.8795 55.4467 72.6448 56.114 72.6448 56.95V61.768C72.6448 62.7067 72.1828 63.176 71.2588 63.176ZM86.9 63.22C85.9613 63.22 85.1327 62.9927 84.414 62.538C83.71 62.0833 83.16 61.438 82.764 60.602C82.368 59.7513 82.17 58.754 82.17 57.61C82.17 56.4513 82.368 55.4613 82.764 54.64C83.16 53.804 83.71 53.1587 84.414 52.704C85.1327 52.2493 85.9613 52.022 86.9 52.022C87.7947 52.022 88.572 52.242 89.232 52.682C89.9067 53.122 90.3613 53.7013 90.596 54.42H90.354V48.7C90.354 48.2453 90.4713 47.9007 90.706 47.666C90.9407 47.4313 91.278 47.314 91.718 47.314C92.158 47.314 92.4953 47.4313 92.73 47.666C92.9793 47.9007 93.104 48.2453 93.104 48.7V61.768C93.104 62.2227 92.9867 62.5747 92.752 62.824C92.5173 63.0587 92.18 63.176 91.74 63.176C91.3 63.176 90.9627 63.0587 90.728 62.824C90.4933 62.5747 90.376 62.2227 90.376 61.768V60.052L90.618 60.712C90.398 61.4747 89.9507 62.0833 89.276 62.538C88.6013 62.9927 87.8093 63.22 86.9 63.22ZM87.67 61.13C88.2127 61.13 88.6893 60.998 89.1 60.734C89.5107 60.47 89.826 60.0813 90.046 59.568C90.2807 59.04 90.398 58.3873 90.398 57.61C90.398 56.4367 90.1487 55.564 89.65 54.992C89.1513 54.4053 88.4913 54.112 87.67 54.112C87.1273 54.112 86.6507 54.244 86.24 54.508C85.8293 54.7573 85.5067 55.146 85.272 55.674C85.052 56.1873 84.942 56.8327 84.942 57.61C84.942 58.7687 85.1913 59.6487 85.69 60.25C86.1887 60.8367 86.8487 61.13 87.67 61.13ZM101.257 63.22C100.04 63.22 98.9914 62.9927 98.1114 62.538C97.2314 62.0833 96.5494 61.438 96.0654 60.602C95.5961 59.766 95.3614 58.776 95.3614 57.632C95.3614 56.5173 95.5887 55.542 96.0434 54.706C96.5127 53.87 97.1507 53.2173 97.9574 52.748C98.7787 52.264 99.7101 52.022 100.751 52.022C101.514 52.022 102.196 52.1467 102.797 52.396C103.413 52.6453 103.934 53.0047 104.359 53.474C104.799 53.9433 105.129 54.5153 105.349 55.19C105.584 55.85 105.701 56.598 105.701 57.434C105.701 57.698 105.606 57.9033 105.415 58.05C105.239 58.182 104.983 58.248 104.645 58.248H97.5834V56.664H103.765L103.413 56.994C103.413 56.3193 103.311 55.7547 103.105 55.3C102.915 54.8453 102.629 54.5007 102.247 54.266C101.881 54.0167 101.419 53.892 100.861 53.892C100.245 53.892 99.7174 54.0387 99.2774 54.332C98.8521 54.6107 98.5221 55.014 98.2874 55.542C98.0674 56.0553 97.9574 56.6713 97.9574 57.39V57.544C97.9574 58.7467 98.2361 59.6487 98.7934 60.25C99.3654 60.8367 100.201 61.13 101.301 61.13C101.683 61.13 102.108 61.086 102.577 60.998C103.061 60.8953 103.516 60.7267 103.941 60.492C104.249 60.316 104.521 60.2427 104.755 60.272C104.99 60.2867 105.173 60.3673 105.305 60.514C105.452 60.6607 105.54 60.844 105.569 61.064C105.599 61.2693 105.555 61.482 105.437 61.702C105.335 61.922 105.151 62.1127 104.887 62.274C104.374 62.5967 103.78 62.8387 103.105 63C102.445 63.1467 101.829 63.22 101.257 63.22Z" fill="white"/>
<path d="M29.794 85.176C29.354 85.176 29.0167 85.0587 28.782 84.824C28.5473 84.5747 28.43 84.2227 28.43 83.768V75.452C28.43 74.9973 28.5473 74.6527 28.782 74.418C29.0167 74.1833 29.3467 74.066 29.772 74.066C30.1973 74.066 30.5273 74.1833 30.762 74.418C30.9967 74.6527 31.114 74.9973 31.114 75.452V76.948L30.872 76.398C31.1947 75.6207 31.6933 75.034 32.368 74.638C33.0573 74.2273 33.8347 74.022 34.7 74.022C35.5653 74.022 36.2767 74.1833 36.834 74.506C37.3913 74.8287 37.8093 75.32 38.088 75.98C38.3667 76.6253 38.506 77.4467 38.506 78.444V83.768C38.506 84.2227 38.3887 84.5747 38.154 84.824C37.9193 85.0587 37.582 85.176 37.142 85.176C36.702 85.176 36.3573 85.0587 36.108 84.824C35.8733 84.5747 35.756 84.2227 35.756 83.768V78.576C35.756 77.74 35.5947 77.1313 35.272 76.75C34.964 76.3687 34.48 76.178 33.82 76.178C33.0133 76.178 32.368 76.4347 31.884 76.948C31.4147 77.4467 31.18 78.114 31.18 78.95V83.768C31.18 84.7067 30.718 85.176 29.794 85.176ZM46.2051 85.22C45.0905 85.22 44.1225 84.9927 43.3011 84.538C42.4798 84.0833 41.8418 83.438 41.3871 82.602C40.9325 81.7513 40.7051 80.754 40.7051 79.61C40.7051 78.7447 40.8298 77.9747 41.0791 77.3C41.3431 76.6107 41.7171 76.024 42.2011 75.54C42.6851 75.0413 43.2645 74.6673 43.9391 74.418C44.6138 74.154 45.3691 74.022 46.2051 74.022C47.3198 74.022 48.2878 74.2493 49.1091 74.704C49.9305 75.1587 50.5685 75.804 51.0231 76.64C51.4778 77.476 51.7051 78.466 51.7051 79.61C51.7051 80.4753 51.5731 81.2527 51.3091 81.942C51.0598 82.6313 50.6931 83.2253 50.2091 83.724C49.7251 84.208 49.1458 84.582 48.4711 84.846C47.7965 85.0953 47.0411 85.22 46.2051 85.22ZM46.2051 83.13C46.7478 83.13 47.2245 82.998 47.6351 82.734C48.0458 82.47 48.3611 82.0813 48.5811 81.568C48.8158 81.04 48.9331 80.3873 48.9331 79.61C48.9331 78.4367 48.6838 77.564 48.1851 76.992C47.6865 76.4053 47.0265 76.112 46.2051 76.112C45.6625 76.112 45.1858 76.244 44.7751 76.508C44.3645 76.7573 44.0418 77.146 43.8071 77.674C43.5871 78.1873 43.4771 78.8327 43.4771 79.61C43.4771 80.7687 43.7265 81.6487 44.2251 82.25C44.7238 82.8367 45.3838 83.13 46.2051 83.13ZM57.9129 85.22C57.2823 85.22 56.6149 85.154 55.9109 85.022C55.2069 84.89 54.5763 84.6627 54.0189 84.34C53.7843 84.1933 53.6156 84.0247 53.5129 83.834C53.4249 83.6287 53.3883 83.4307 53.4029 83.24C53.4323 83.0347 53.5056 82.8587 53.6229 82.712C53.7549 82.5653 53.9163 82.47 54.1069 82.426C54.3123 82.382 54.5323 82.4187 54.7669 82.536C55.3536 82.8147 55.9036 83.0127 56.4169 83.13C56.9303 83.2327 57.4363 83.284 57.9349 83.284C58.6389 83.284 59.1596 83.1667 59.4969 82.932C59.8489 82.6827 60.0249 82.36 60.0249 81.964C60.0249 81.6267 59.9076 81.37 59.6729 81.194C59.4529 81.0033 59.1156 80.864 58.6609 80.776L56.4609 80.358C55.5516 80.182 54.8549 79.852 54.3709 79.368C53.9016 78.8693 53.6669 78.2313 53.6669 77.454C53.6669 76.75 53.8576 76.1413 54.2389 75.628C54.6349 75.1147 55.1776 74.7187 55.8669 74.44C56.5563 74.1613 57.3483 74.022 58.2429 74.022C58.8883 74.022 59.4896 74.0953 60.0469 74.242C60.6189 74.374 61.1689 74.5867 61.6969 74.88C61.9169 74.9973 62.0636 75.1513 62.1369 75.342C62.2249 75.5327 62.2469 75.7307 62.2029 75.936C62.1589 76.1267 62.0709 76.3027 61.9389 76.464C61.8069 76.6107 61.6383 76.706 61.4329 76.75C61.2423 76.7793 61.0223 76.7353 60.7729 76.618C60.3183 76.3833 59.8783 76.2147 59.4529 76.112C59.0423 76.0093 58.6463 75.958 58.2649 75.958C57.5463 75.958 57.0109 76.0827 56.6589 76.332C56.3216 76.5813 56.1529 76.9113 56.1529 77.322C56.1529 77.63 56.2556 77.8867 56.4609 78.092C56.6663 78.2973 56.9816 78.4367 57.4069 78.51L59.6069 78.928C60.5603 79.104 61.2789 79.4267 61.7629 79.896C62.2616 80.3653 62.5109 80.996 62.5109 81.788C62.5109 82.8587 62.0929 83.702 61.2569 84.318C60.4209 84.9193 59.3063 85.22 57.9129 85.22ZM72.0978 85.176C71.6578 85.176 71.3204 85.0587 71.0858 84.824C70.8511 84.5747 70.7338 84.2227 70.7338 83.768V75.452C70.7338 74.9973 70.8511 74.6527 71.0858 74.418C71.3204 74.1833 71.6504 74.066 72.0758 74.066C72.5011 74.066 72.8311 74.1833 73.0658 74.418C73.3004 74.6527 73.4178 74.9973 73.4178 75.452V77.058L73.1758 76.398C73.4691 75.6647 73.9238 75.0853 74.5398 74.66C75.1558 74.2347 75.8891 74.022 76.7398 74.022C77.6051 74.022 78.3164 74.2273 78.8738 74.638C79.4311 75.0487 79.8198 75.6793 80.0398 76.53H79.7318C80.0251 75.7527 80.5091 75.144 81.1838 74.704C81.8584 74.2493 82.6358 74.022 83.5158 74.022C84.3371 74.022 85.0118 74.1833 85.5398 74.506C86.0824 74.8287 86.4858 75.32 86.7498 75.98C87.0138 76.6253 87.1458 77.4467 87.1458 78.444V83.768C87.1458 84.2227 87.0211 84.5747 86.7718 84.824C86.5371 85.0587 86.1998 85.176 85.7598 85.176C85.3198 85.176 84.9824 85.0587 84.7478 84.824C84.5131 84.5747 84.3958 84.2227 84.3958 83.768V78.554C84.3958 77.7327 84.2564 77.1313 83.9778 76.75C83.7138 76.3687 83.2591 76.178 82.6138 76.178C81.8951 76.178 81.3304 76.4347 80.9198 76.948C80.5091 77.4467 80.3038 78.1433 80.3038 79.038V83.768C80.3038 84.2227 80.1864 84.5747 79.9518 84.824C79.7171 85.0587 79.3798 85.176 78.9398 85.176C78.4998 85.176 78.1551 85.0587 77.9058 84.824C77.6711 84.5747 77.5538 84.2227 77.5538 83.768V78.554C77.5538 77.7327 77.4144 77.1313 77.1358 76.75C76.8718 76.3687 76.4244 76.178 75.7938 76.178C75.0751 76.178 74.5104 76.4347 74.0998 76.948C73.6891 77.4467 73.4838 78.1433 73.4838 79.038V83.768C73.4838 84.7067 73.0218 85.176 72.0978 85.176ZM95.2847 85.22C94.0674 85.22 93.0187 84.9927 92.1387 84.538C91.2587 84.0833 90.5767 83.438 90.0927 82.602C89.6234 81.766 89.3887 80.776 89.3887 79.632C89.3887 78.5173 89.6161 77.542 90.0707 76.706C90.5401 75.87 91.1781 75.2173 91.9847 74.748C92.8061 74.264 93.7374 74.022 94.7787 74.022C95.5414 74.022 96.2234 74.1467 96.8247 74.396C97.4407 74.6453 97.9614 75.0047 98.3867 75.474C98.8267 75.9433 99.1567 76.5153 99.3767 77.19C99.6114 77.85 99.7287 78.598 99.7287 79.434C99.7287 79.698 99.6334 79.9033 99.4427 80.05C99.2667 80.182 99.0101 80.248 98.6727 80.248H91.6107V78.664H97.7927L97.4407 78.994C97.4407 78.3193 97.3381 77.7547 97.1327 77.3C96.9421 76.8453 96.6561 76.5007 96.2747 76.266C95.9081 76.0167 95.4461 75.892 94.8887 75.892C94.2727 75.892 93.7447 76.0387 93.3047 76.332C92.8794 76.6107 92.5494 77.014 92.3147 77.542C92.0947 78.0553 91.9847 78.6713 91.9847 79.39V79.544C91.9847 80.7467 92.2634 81.6487 92.8207 82.25C93.3927 82.8367 94.2287 83.13 95.3287 83.13C95.7101 83.13 96.1354 83.086 96.6047 82.998C97.0887 82.8953 97.5434 82.7267 97.9687 82.492C98.2767 82.316 98.5481 82.2427 98.7827 82.272C99.0174 82.2867 99.2007 82.3673 99.3327 82.514C99.4794 82.6607 99.5674 82.844 99.5967 83.064C99.6261 83.2693 99.5821 83.482 99.4647 83.702C99.3621 83.922 99.1787 84.1127 98.9147 84.274C98.4014 84.5967 97.8074 84.8387 97.1327 85C96.4727 85.1467 95.8567 85.22 95.2847 85.22ZM105.581 85.22C104.363 85.22 103.447 84.8753 102.831 84.186C102.215 83.482 101.907 82.4553 101.907 81.106V70.7C101.907 70.2453 102.024 69.9007 102.259 69.666C102.493 69.4313 102.831 69.314 103.271 69.314C103.711 69.314 104.048 69.4313 104.283 69.666C104.532 69.9007 104.657 70.2453 104.657 70.7V80.974C104.657 81.6487 104.796 82.1473 105.075 82.47C105.368 82.7927 105.779 82.954 106.307 82.954C106.424 82.954 106.534 82.954 106.637 82.954C106.739 82.9393 106.842 82.9247 106.945 82.91C107.15 82.8807 107.289 82.9393 107.363 83.086C107.436 83.218 107.473 83.4967 107.473 83.922C107.473 84.2887 107.399 84.5747 107.253 84.78C107.106 84.9853 106.864 85.11 106.527 85.154C106.38 85.1687 106.226 85.1833 106.065 85.198C105.903 85.2127 105.742 85.22 105.581 85.22ZM110.296 85.176C109.856 85.176 109.519 85.0587 109.284 84.824C109.049 84.5747 108.932 84.2227 108.932 83.768V70.7C108.932 70.2453 109.049 69.9007 109.284 69.666C109.519 69.4313 109.856 69.314 110.296 69.314C110.736 69.314 111.073 69.4313 111.308 69.666C111.557 69.9007 111.682 70.2453 111.682 70.7V76.398H111.374C111.697 75.6207 112.195 75.034 112.87 74.638C113.559 74.2273 114.337 74.022 115.202 74.022C116.067 74.022 116.779 74.1833 117.336 74.506C117.893 74.8287 118.311 75.32 118.59 75.98C118.869 76.6253 119.008 77.4467 119.008 78.444V83.768C119.008 84.2227 118.891 84.5747 118.656 84.824C118.421 85.0587 118.084 85.176 117.644 85.176C117.204 85.176 116.859 85.0587 116.61 84.824C116.375 84.5747 116.258 84.2227 116.258 83.768V78.576C116.258 77.74 116.097 77.1313 115.774 76.75C115.466 76.3687 114.982 76.178 114.322 76.178C113.515 76.178 112.87 76.4347 112.386 76.948C111.917 77.4467 111.682 78.114 111.682 78.95V83.768C111.682 84.7067 111.22 85.176 110.296 85.176ZM126.707 85.22C125.592 85.22 124.624 84.9927 123.803 84.538C122.982 84.0833 122.344 83.438 121.889 82.602C121.434 81.7513 121.207 80.754 121.207 79.61C121.207 78.7447 121.332 77.9747 121.581 77.3C121.845 76.6107 122.219 76.024 122.703 75.54C123.187 75.0413 123.766 74.6673 124.441 74.418C125.116 74.154 125.871 74.022 126.707 74.022C127.822 74.022 128.79 74.2493 129.611 74.704C130.432 75.1587 131.07 75.804 131.525 76.64C131.98 77.476 132.207 78.466 132.207 79.61C132.207 80.4753 132.075 81.2527 131.811 81.942C131.562 82.6313 131.195 83.2253 130.711 83.724C130.227 84.208 129.648 84.582 128.973 84.846C128.298 85.0953 127.543 85.22 126.707 85.22ZM126.707 83.13C127.25 83.13 127.726 82.998 128.137 82.734C128.548 82.47 128.863 82.0813 129.083 81.568C129.318 81.04 129.435 80.3873 129.435 79.61C129.435 78.4367 129.186 77.564 128.687 76.992C128.188 76.4053 127.528 76.112 126.707 76.112C126.164 76.112 125.688 76.244 125.277 76.508C124.866 76.7573 124.544 77.146 124.309 77.674C124.089 78.1873 123.979 78.8327 123.979 79.61C123.979 80.7687 124.228 81.6487 124.727 82.25C125.226 82.8367 125.886 83.13 126.707 83.13ZM135.885 85.176C135.43 85.176 135.078 85.0587 134.829 84.824C134.594 84.5747 134.477 84.2227 134.477 83.768V75.452C134.477 74.9973 134.594 74.6527 134.829 74.418C135.064 74.1833 135.394 74.066 135.819 74.066C136.244 74.066 136.574 74.1833 136.809 74.418C137.044 74.6527 137.161 74.9973 137.161 75.452V76.838H136.941C137.146 75.958 137.55 75.2907 138.151 74.836C138.752 74.3813 139.552 74.11 140.549 74.022C140.857 73.9927 141.099 74.0733 141.275 74.264C141.466 74.44 141.576 74.7187 141.605 75.1C141.634 75.4667 141.546 75.7673 141.341 76.002C141.15 76.222 140.857 76.354 140.461 76.398L139.977 76.442C139.082 76.53 138.408 76.8087 137.953 77.278C137.498 77.7327 137.271 78.378 137.271 79.214V83.768C137.271 84.2227 137.154 84.5747 136.919 84.824C136.684 85.0587 136.34 85.176 135.885 85.176ZM148.222 85.22C147.005 85.22 145.956 84.9927 145.076 84.538C144.196 84.0833 143.514 83.438 143.03 82.602C142.561 81.766 142.326 80.776 142.326 79.632C142.326 78.5173 142.554 77.542 143.008 76.706C143.478 75.87 144.116 75.2173 144.922 74.748C145.744 74.264 146.675 74.022 147.716 74.022C148.479 74.022 149.161 74.1467 149.762 74.396C150.378 74.6453 150.899 75.0047 151.324 75.474C151.764 75.9433 152.094 76.5153 152.314 77.19C152.549 77.85 152.666 78.598 152.666 79.434C152.666 79.698 152.571 79.9033 152.38 80.05C152.204 80.182 151.948 80.248 151.61 80.248H144.548V78.664H150.73L150.378 78.994C150.378 78.3193 150.276 77.7547 150.07 77.3C149.88 76.8453 149.594 76.5007 149.212 76.266C148.846 76.0167 148.384 75.892 147.826 75.892C147.21 75.892 146.682 76.0387 146.242 76.332C145.817 76.6107 145.487 77.014 145.252 77.542C145.032 78.0553 144.922 78.6713 144.922 79.39V79.544C144.922 80.7467 145.201 81.6487 145.758 82.25C146.33 82.8367 147.166 83.13 148.266 83.13C148.648 83.13 149.073 83.086 149.542 82.998C150.026 82.8953 150.481 82.7267 150.906 82.492C151.214 82.316 151.486 82.2427 151.72 82.272C151.955 82.2867 152.138 82.3673 152.27 82.514C152.417 82.6607 152.505 82.844 152.534 83.064C152.564 83.2693 152.52 83.482 152.402 83.702C152.3 83.922 152.116 84.1127 151.852 84.274C151.339 84.5967 150.745 84.8387 150.07 85C149.41 85.1467 148.794 85.22 148.222 85.22ZM158.782 85.22C158.151 85.22 157.484 85.154 156.78 85.022C156.076 84.89 155.445 84.6627 154.888 84.34C154.653 84.1933 154.485 84.0247 154.382 83.834C154.294 83.6287 154.257 83.4307 154.272 83.24C154.301 83.0347 154.375 82.8587 154.492 82.712C154.624 82.5653 154.785 82.47 154.976 82.426C155.181 82.382 155.401 82.4187 155.636 82.536C156.223 82.8147 156.773 83.0127 157.286 83.13C157.799 83.2327 158.305 83.284 158.804 83.284C159.508 83.284 160.029 83.1667 160.366 82.932C160.718 82.6827 160.894 82.36 160.894 81.964C160.894 81.6267 160.777 81.37 160.542 81.194C160.322 81.0033 159.985 80.864 159.53 80.776L157.33 80.358C156.421 80.182 155.724 79.852 155.24 79.368C154.771 78.8693 154.536 78.2313 154.536 77.454C154.536 76.75 154.727 76.1413 155.108 75.628C155.504 75.1147 156.047 74.7187 156.736 74.44C157.425 74.1613 158.217 74.022 159.112 74.022C159.757 74.022 160.359 74.0953 160.916 74.242C161.488 74.374 162.038 74.5867 162.566 74.88C162.786 74.9973 162.933 75.1513 163.006 75.342C163.094 75.5327 163.116 75.7307 163.072 75.936C163.028 76.1267 162.94 76.3027 162.808 76.464C162.676 76.6107 162.507 76.706 162.302 76.75C162.111 76.7793 161.891 76.7353 161.642 76.618C161.187 76.3833 160.747 76.2147 160.322 76.112C159.911 76.0093 159.515 75.958 159.134 75.958C158.415 75.958 157.88 76.0827 157.528 76.332C157.191 76.5813 157.022 76.9113 157.022 77.322C157.022 77.63 157.125 77.8867 157.33 78.092C157.535 78.2973 157.851 78.4367 158.276 78.51L160.476 78.928C161.429 79.104 162.148 79.4267 162.632 79.896C163.131 80.3653 163.38 80.996 163.38 81.788C163.38 82.8587 162.962 83.702 162.126 84.318C161.29 84.9193 160.175 85.22 158.782 85.22Z" fill="white"/>
<path d="M30.892 104.112C30.2293 104.112 29.66 103.967 29.184 103.678C28.708 103.379 28.3393 102.964 28.078 102.432C27.826 101.891 27.7 101.265 27.7 100.556C27.7 100.015 27.77 99.534 27.91 99.114C28.0593 98.6847 28.2693 98.3207 28.54 98.022C28.82 97.7233 29.156 97.4947 29.548 97.336C29.9493 97.168 30.3973 97.084 30.892 97.084C31.2373 97.084 31.592 97.1447 31.956 97.266C32.32 97.378 32.6513 97.5693 32.95 97.84C33.0153 97.896 33.0573 97.9613 33.076 98.036C33.0947 98.1107 33.09 98.1853 33.062 98.26C33.034 98.3253 32.992 98.3813 32.936 98.428C32.88 98.4653 32.81 98.4887 32.726 98.498C32.6513 98.498 32.572 98.4607 32.488 98.386C32.2267 98.1713 31.9607 98.0267 31.69 97.952C31.4287 97.868 31.172 97.826 30.92 97.826C30.5373 97.826 30.2013 97.8867 29.912 98.008C29.6227 98.1293 29.3753 98.3067 29.17 98.54C28.974 98.7733 28.8247 99.0627 28.722 99.408C28.6193 99.744 28.568 100.131 28.568 100.57C28.568 101.447 28.7687 102.138 29.17 102.642C29.5807 103.137 30.164 103.384 30.92 103.384C31.172 103.384 31.4287 103.347 31.69 103.272C31.9607 103.188 32.2267 103.039 32.488 102.824C32.572 102.749 32.6513 102.717 32.726 102.726C32.81 102.726 32.88 102.749 32.936 102.796C32.992 102.833 33.0293 102.889 33.048 102.964C33.076 103.029 33.0807 103.099 33.062 103.174C33.0433 103.249 33.0013 103.314 32.936 103.37C32.6467 103.641 32.32 103.832 31.956 103.944C31.592 104.056 31.2373 104.112 30.892 104.112ZM37.1111 104.112C36.4764 104.112 35.9257 103.967 35.4591 103.678C34.9924 103.389 34.6284 102.983 34.3671 102.46C34.1151 101.937 33.9891 101.317 33.9891 100.598C33.9891 100.066 34.0591 99.5853 34.1991 99.156C34.3484 98.7267 34.5584 98.358 34.8291 98.05C35.1091 97.7327 35.4404 97.4947 35.8231 97.336C36.2151 97.168 36.6444 97.084 37.1111 97.084C37.7551 97.084 38.3104 97.2287 38.7771 97.518C39.2437 97.8073 39.6031 98.218 39.8551 98.75C40.1164 99.2727 40.2471 99.8887 40.2471 100.598C40.2471 101.139 40.1724 101.625 40.0231 102.054C39.8831 102.483 39.6731 102.852 39.3931 103.16C39.1224 103.468 38.7957 103.706 38.4131 103.874C38.0304 104.033 37.5964 104.112 37.1111 104.112ZM37.1111 103.398C37.5777 103.398 37.9791 103.291 38.3151 103.076C38.6604 102.852 38.9217 102.53 39.0991 102.11C39.2857 101.69 39.3791 101.186 39.3791 100.598C39.3791 99.7113 39.1737 99.0253 38.7631 98.54C38.3617 98.0547 37.8111 97.812 37.1111 97.812C36.6537 97.812 36.2524 97.924 35.9071 98.148C35.5711 98.3627 35.3097 98.68 35.1231 99.1C34.9457 99.5107 34.8571 100.01 34.8571 100.598C34.8571 101.494 35.0624 102.185 35.4731 102.67C35.8837 103.155 36.4297 103.398 37.1111 103.398ZM42.5273 104.084C42.3873 104.084 42.28 104.047 42.2053 103.972C42.1306 103.897 42.0933 103.79 42.0933 103.65V97.56C42.0933 97.4107 42.1306 97.2987 42.2053 97.224C42.28 97.1493 42.3873 97.112 42.5273 97.112C42.658 97.112 42.756 97.1493 42.8213 97.224C42.896 97.2987 42.9333 97.4107 42.9333 97.56V98.89L42.7793 98.792C42.9473 98.2413 43.232 97.8213 43.6333 97.532C44.0346 97.2333 44.5153 97.084 45.0753 97.084C45.6726 97.084 46.1486 97.2287 46.5033 97.518C46.8673 97.8073 47.1053 98.2413 47.2173 98.82H47.0073C47.166 98.2973 47.46 97.8773 47.8893 97.56C48.328 97.2427 48.8413 97.084 49.4293 97.084C49.9333 97.084 50.3486 97.182 50.6753 97.378C51.0113 97.574 51.2633 97.868 51.4313 98.26C51.5993 98.6427 51.6833 99.128 51.6833 99.716V103.65C51.6833 103.79 51.646 103.897 51.5713 103.972C51.4966 104.047 51.3893 104.084 51.2493 104.084C51.1186 104.084 51.016 104.047 50.9413 103.972C50.8666 103.897 50.8293 103.79 50.8293 103.65V99.786C50.8293 99.1047 50.708 98.61 50.4653 98.302C50.232 97.9847 49.8353 97.826 49.2753 97.826C48.678 97.826 48.202 98.036 47.8473 98.456C47.4926 98.8667 47.3153 99.4267 47.3153 100.136V103.65C47.3153 103.79 47.278 103.897 47.2033 103.972C47.1286 104.047 47.026 104.084 46.8953 104.084C46.7553 104.084 46.648 104.047 46.5733 103.972C46.4986 103.897 46.4613 103.79 46.4613 103.65V99.786C46.4613 99.1047 46.34 98.61 46.0973 98.302C45.864 97.9847 45.472 97.826 44.9213 97.826C44.3146 97.826 43.834 98.036 43.4793 98.456C43.1246 98.8667 42.9473 99.4267 42.9473 100.136V103.65C42.9473 103.939 42.8073 104.084 42.5273 104.084ZM60.4842 104.084C60.3442 104.084 60.2368 104.047 60.1622 103.972C60.0875 103.888 60.0502 103.776 60.0502 103.636V94.9H56.7042C56.5735 94.9 56.4708 94.8627 56.3962 94.788C56.3215 94.7133 56.2842 94.62 56.2842 94.508C56.2842 94.3867 56.3215 94.2933 56.3962 94.228C56.4708 94.1627 56.5735 94.13 56.7042 94.13H64.2782C64.4088 94.13 64.5068 94.1627 64.5722 94.228C64.6468 94.2933 64.6842 94.3867 64.6842 94.508C64.6842 94.6293 64.6468 94.7273 64.5722 94.802C64.5068 94.8673 64.4088 94.9 64.2782 94.9H60.9182V103.636C60.9182 103.776 60.8808 103.888 60.8062 103.972C60.7408 104.047 60.6335 104.084 60.4842 104.084ZM66.3607 104C66.23 104 66.1227 103.963 66.0387 103.888C65.964 103.804 65.9267 103.692 65.9267 103.552V94.508C65.9267 94.3587 65.964 94.2467 66.0387 94.172C66.1133 94.0973 66.216 94.06 66.3467 94.06C66.4867 94.06 66.594 94.0973 66.6687 94.172C66.7433 94.2467 66.7807 94.3587 66.7807 94.508V103.23H71.5967C71.7367 103.23 71.8393 103.263 71.9047 103.328C71.9793 103.393 72.0167 103.487 72.0167 103.608C72.0167 103.739 71.9793 103.837 71.9047 103.902C71.8393 103.967 71.7367 104 71.5967 104H66.3607ZM76.2391 104.112C75.7911 104.112 75.3571 104.075 74.9371 104C74.5171 103.925 74.1251 103.813 73.7611 103.664C73.4064 103.505 73.0844 103.314 72.7951 103.09C72.7018 103.025 72.6364 102.95 72.5991 102.866C72.5711 102.773 72.5664 102.689 72.5851 102.614C72.6131 102.53 72.6551 102.46 72.7111 102.404C72.7764 102.348 72.8511 102.32 72.9351 102.32C73.0191 102.311 73.1078 102.339 73.2011 102.404C73.6304 102.721 74.0831 102.955 74.5591 103.104C75.0444 103.253 75.6044 103.328 76.2391 103.328C77.1258 103.328 77.7884 103.155 78.2271 102.81C78.6751 102.465 78.8991 102.012 78.8991 101.452C78.8991 100.985 78.7358 100.621 78.4091 100.36C78.0918 100.099 77.5644 99.8933 76.8271 99.744L75.4131 99.45C74.5264 99.2727 73.8684 98.974 73.4391 98.554C73.0098 98.134 72.7951 97.574 72.7951 96.874C72.7951 96.4447 72.8791 96.0573 73.0471 95.712C73.2151 95.3573 73.4531 95.054 73.7611 94.802C74.0691 94.55 74.4331 94.3587 74.8531 94.228C75.2824 94.088 75.7538 94.018 76.2671 94.018C76.8738 94.018 77.4291 94.102 77.9331 94.27C78.4464 94.438 78.9131 94.704 79.3331 95.068C79.4171 95.1333 79.4731 95.2127 79.5011 95.306C79.5291 95.39 79.5291 95.474 79.5011 95.558C79.4731 95.6327 79.4311 95.6933 79.3751 95.74C79.3191 95.7867 79.2491 95.8147 79.1651 95.824C79.0811 95.824 78.9924 95.7867 78.8991 95.712C78.5071 95.3947 78.0964 95.166 77.6671 95.026C77.2471 94.8767 76.7804 94.802 76.2671 94.802C75.7444 94.802 75.2871 94.886 74.8951 95.054C74.5124 95.222 74.2138 95.46 73.9991 95.768C73.7844 96.076 73.6771 96.44 73.6771 96.86C73.6771 97.3453 73.8264 97.7327 74.1251 98.022C74.4238 98.3113 74.9044 98.5213 75.5671 98.652L76.9951 98.946C77.9378 99.142 78.6378 99.436 79.0951 99.828C79.5524 100.211 79.7811 100.738 79.7811 101.41C79.7811 101.811 79.6971 102.18 79.5291 102.516C79.3704 102.843 79.1371 103.127 78.8291 103.37C78.5211 103.613 78.1478 103.799 77.7091 103.93C77.2798 104.051 76.7898 104.112 76.2391 104.112ZM85.6663 104C85.517 104 85.4003 103.958 85.3163 103.874C85.2323 103.79 85.1903 103.669 85.1903 103.51V94.62C85.1903 94.4613 85.2323 94.34 85.3163 94.256C85.4003 94.172 85.517 94.13 85.6663 94.13H88.9563C89.6377 94.13 90.2117 94.2327 90.6783 94.438C91.145 94.634 91.5043 94.9233 91.7563 95.306C92.0083 95.6887 92.1343 96.16 92.1343 96.72C92.1343 97.336 91.9477 97.8493 91.5743 98.26C91.2103 98.6707 90.7157 98.9413 90.0903 99.072V98.876C90.7903 98.9507 91.341 99.2027 91.7423 99.632C92.153 100.052 92.3583 100.612 92.3583 101.312C92.3583 102.189 92.0783 102.857 91.5183 103.314C90.9583 103.771 90.165 104 89.1383 104H85.6663ZM86.0303 103.272H89.0683C89.8803 103.272 90.487 103.113 90.8883 102.796C91.2897 102.469 91.4903 101.979 91.4903 101.326C91.4903 100.654 91.2897 100.159 90.8883 99.842C90.487 99.5247 89.8803 99.366 89.0683 99.366H86.0303V103.272ZM86.0303 98.638H88.8583C89.6423 98.638 90.2397 98.4793 90.6503 98.162C91.061 97.8353 91.2663 97.364 91.2663 96.748C91.2663 96.132 91.061 95.6653 90.6503 95.348C90.2397 95.0213 89.6423 94.858 88.8583 94.858H86.0303V98.638ZM96.5149 104.112C96.0576 104.112 95.6469 104.023 95.2829 103.846C94.9283 103.669 94.6436 103.426 94.4289 103.118C94.2236 102.81 94.1209 102.465 94.1209 102.082C94.1209 101.578 94.2469 101.181 94.4989 100.892C94.7509 100.603 95.1756 100.402 95.7729 100.29C96.3703 100.169 97.1916 100.108 98.2369 100.108H98.8389V100.738H98.2509C97.4109 100.738 96.7529 100.775 96.2769 100.85C95.8103 100.915 95.4836 101.041 95.2969 101.228C95.1103 101.415 95.0169 101.676 95.0169 102.012C95.0169 102.432 95.1616 102.773 95.4509 103.034C95.7403 103.295 96.1323 103.426 96.6269 103.426C97.0283 103.426 97.3783 103.333 97.6769 103.146C97.9849 102.95 98.2276 102.684 98.4049 102.348C98.5823 102.012 98.6709 101.629 98.6709 101.2V99.604C98.6709 98.9787 98.5449 98.526 98.2929 98.246C98.0409 97.9567 97.6396 97.812 97.0889 97.812C96.7343 97.812 96.3889 97.8587 96.0529 97.952C95.7263 98.0453 95.3763 98.1947 95.0029 98.4C94.9003 98.456 94.8069 98.4747 94.7229 98.456C94.6483 98.4373 94.5876 98.4 94.5409 98.344C94.5036 98.288 94.4756 98.2227 94.4569 98.148C94.4476 98.064 94.4616 97.9847 94.4989 97.91C94.5363 97.8353 94.6016 97.7747 94.6949 97.728C95.0869 97.5133 95.4836 97.3547 95.8849 97.252C96.2956 97.14 96.6923 97.084 97.0749 97.084C97.6256 97.084 98.0783 97.1773 98.4329 97.364C98.7969 97.5507 99.0629 97.8307 99.2309 98.204C99.4083 98.5773 99.4969 99.058 99.4969 99.646V103.65C99.4969 103.79 99.4643 103.897 99.3989 103.972C99.3336 104.047 99.2356 104.084 99.1049 104.084C98.9743 104.084 98.8716 104.047 98.7969 103.972C98.7223 103.897 98.6849 103.79 98.6849 103.65V102.362H98.8249C98.7409 102.726 98.5916 103.039 98.3769 103.3C98.1623 103.561 97.8963 103.762 97.5789 103.902C97.2616 104.042 96.9069 104.112 96.5149 104.112ZM102.163 104.084C102.023 104.084 101.916 104.047 101.841 103.972C101.767 103.897 101.729 103.79 101.729 103.65V97.56C101.729 97.4107 101.767 97.2987 101.841 97.224C101.916 97.1493 102.023 97.112 102.163 97.112C102.294 97.112 102.392 97.1493 102.457 97.224C102.532 97.2987 102.569 97.4107 102.569 97.56V98.806H102.429C102.597 98.2553 102.896 97.8307 103.325 97.532C103.764 97.2333 104.287 97.0793 104.893 97.07C105.005 97.0607 105.099 97.084 105.173 97.14C105.248 97.196 105.285 97.2847 105.285 97.406C105.295 97.5367 105.267 97.6393 105.201 97.714C105.136 97.7793 105.029 97.8213 104.879 97.84L104.683 97.854C104.021 97.9193 103.507 98.1387 103.143 98.512C102.779 98.8853 102.597 99.3893 102.597 100.024V103.65C102.597 103.79 102.56 103.897 102.485 103.972C102.42 104.047 102.313 104.084 102.163 104.084ZM109.749 104.112C109.114 104.112 108.573 103.949 108.125 103.622C107.677 103.295 107.373 102.857 107.215 102.306L107.369 102.222V103.65C107.369 103.79 107.331 103.897 107.257 103.972C107.182 104.047 107.079 104.084 106.949 104.084C106.809 104.084 106.701 104.047 106.627 103.972C106.552 103.897 106.515 103.79 106.515 103.65V94.48C106.515 94.3307 106.552 94.2233 106.627 94.158C106.701 94.0833 106.809 94.046 106.949 94.046C107.079 94.046 107.182 94.0833 107.257 94.158C107.331 94.2233 107.369 94.3307 107.369 94.48V98.89H107.215C107.373 98.3393 107.677 97.9007 108.125 97.574C108.573 97.2473 109.114 97.084 109.749 97.084C110.365 97.084 110.897 97.2287 111.345 97.518C111.793 97.8073 112.138 98.2133 112.381 98.736C112.633 99.2587 112.759 99.8793 112.759 100.598C112.759 101.317 112.633 101.942 112.381 102.474C112.138 102.997 111.788 103.403 111.331 103.692C110.883 103.972 110.355 104.112 109.749 104.112ZM109.623 103.398C110.08 103.398 110.477 103.291 110.813 103.076C111.158 102.852 111.424 102.53 111.611 102.11C111.797 101.69 111.891 101.186 111.891 100.598C111.891 99.7113 111.685 99.0253 111.275 98.54C110.864 98.0547 110.313 97.812 109.623 97.812C109.165 97.812 108.764 97.924 108.419 98.148C108.083 98.3627 107.821 98.68 107.635 99.1C107.448 99.5107 107.355 100.01 107.355 100.598C107.355 101.494 107.56 102.185 107.971 102.67C108.381 103.155 108.932 103.398 109.623 103.398ZM117.521 104.112C116.821 104.112 116.219 103.972 115.715 103.692C115.211 103.412 114.824 103.011 114.553 102.488C114.283 101.965 114.147 101.345 114.147 100.626C114.147 99.9167 114.283 99.3007 114.553 98.778C114.824 98.246 115.197 97.8307 115.673 97.532C116.159 97.2333 116.714 97.084 117.339 97.084C117.797 97.084 118.198 97.1633 118.543 97.322C118.898 97.4713 119.197 97.6907 119.439 97.98C119.691 98.26 119.883 98.6053 120.013 99.016C120.144 99.4173 120.209 99.8747 120.209 100.388C120.209 100.519 120.172 100.617 120.097 100.682C120.032 100.747 119.939 100.78 119.817 100.78H114.763V100.15H119.677L119.453 100.332C119.453 99.7907 119.374 99.3333 119.215 98.96C119.057 98.5773 118.819 98.2833 118.501 98.078C118.193 97.8727 117.811 97.77 117.353 97.77C116.84 97.77 116.406 97.8913 116.051 98.134C115.697 98.3673 115.431 98.694 115.253 99.114C115.076 99.5247 114.987 100.001 114.987 100.542V100.612C114.987 101.508 115.207 102.199 115.645 102.684C116.084 103.16 116.7 103.398 117.493 103.398C117.839 103.398 118.17 103.351 118.487 103.258C118.814 103.165 119.131 103.006 119.439 102.782C119.533 102.717 119.621 102.684 119.705 102.684C119.799 102.684 119.873 102.707 119.929 102.754C119.995 102.801 120.037 102.861 120.055 102.936C120.083 103.001 120.079 103.076 120.041 103.16C120.013 103.235 119.953 103.305 119.859 103.37C119.561 103.613 119.201 103.799 118.781 103.93C118.361 104.051 117.941 104.112 117.521 104.112ZM122.384 104.084C122.244 104.084 122.137 104.047 122.062 103.972C121.987 103.897 121.95 103.79 121.95 103.65V97.56C121.95 97.4107 121.987 97.2987 122.062 97.224C122.137 97.1493 122.244 97.112 122.384 97.112C122.515 97.112 122.613 97.1493 122.678 97.224C122.753 97.2987 122.79 97.4107 122.79 97.56V98.806H122.65C122.818 98.2553 123.117 97.8307 123.546 97.532C123.985 97.2333 124.507 97.0793 125.114 97.07C125.226 97.0607 125.319 97.084 125.394 97.14C125.469 97.196 125.506 97.2847 125.506 97.406C125.515 97.5367 125.487 97.6393 125.422 97.714C125.357 97.7793 125.249 97.8213 125.1 97.84L124.904 97.854C124.241 97.9193 123.728 98.1387 123.364 98.512C123 98.8853 122.818 99.3893 122.818 100.024V103.65C122.818 103.79 122.781 103.897 122.706 103.972C122.641 104.047 122.533 104.084 122.384 104.084Z" fill="white"/>
</g>
<defs>
<clipPath id="clip0_205_6177">
<rect width="350" height="150" rx="10" fill="white"/>
</clipPath>
</defs>
</svg>
