<svg width="128" height="43" viewBox="0 0 128 43" fill="none" xmlns="http://www.w3.org/2000/svg">
<path d="M16.7563 26.62L17.0435 24.1755L27.48 23.6464L27.1929 26.091L23.4487 26.2807L22.3118 36.2879L19.3696 36.4371L20.5065 26.4299L16.7563 26.62ZM27.5135 36.0242L28.9376 23.5726L31.922 23.4213L30.7851 33.4285L35.922 33.1681L35.6348 35.6126L27.5135 36.0242ZM44.84 26.5021C44.8491 26.0463 44.7107 25.7007 44.4248 25.4653C44.1428 25.2298 43.7105 25.1268 43.1276 25.1563C42.7418 25.1759 42.4147 25.2428 42.1465 25.3572C41.8781 25.4675 41.6699 25.615 41.5221 25.7998C41.3741 25.9806 41.2859 26.1866 41.2573 26.4177C41.2303 26.6004 41.2485 26.7607 41.3119 26.8985C41.3753 27.0364 41.4801 27.156 41.6262 27.2574C41.7764 27.3586 41.9601 27.444 42.1772 27.5135C42.3983 27.5829 42.6451 27.641 42.9174 27.6876L43.9426 27.8774C44.5361 27.9803 45.0536 28.1314 45.4948 28.3307C45.9399 28.5257 46.305 28.7712 46.59 29.067C46.8748 29.3588 47.0775 29.7012 47.1982 30.094C47.3188 30.4868 47.3495 30.9326 47.2901 31.4313C47.201 32.2176 46.9275 32.9024 46.4694 33.4857C46.0154 34.0689 45.4061 34.529 44.6414 34.8659C43.8807 35.2027 42.9858 35.3971 41.9569 35.4493C40.9279 35.5015 40.0458 35.391 39.3106 35.118C38.5793 34.8407 38.0368 34.3947 37.6833 33.78C37.3297 33.1652 37.203 32.3737 37.303 31.4056L40.1548 31.261C40.1308 31.6612 40.1978 31.9902 40.356 32.2482C40.5181 32.5059 40.7574 32.6953 41.0739 32.8163C41.3903 32.9372 41.7676 32.9866 42.2057 32.9644C42.6076 32.944 42.9566 32.8719 43.2525 32.7481C43.5525 32.6241 43.788 32.4611 43.9591 32.259C44.1343 32.0567 44.2356 31.8299 44.2632 31.5786C44.2917 31.3475 44.2435 31.1505 44.1183 30.9876C43.9972 30.8244 43.7969 30.6875 43.5172 30.5768C43.2416 30.4658 42.8822 30.3712 42.439 30.2929L41.1877 30.0541C40.1541 29.8567 39.3602 29.498 38.806 28.978C38.2557 28.4578 38.0332 27.7256 38.1385 26.7813C38.2282 26.0071 38.5117 25.3198 38.9891 24.7193C39.4704 24.1186 40.0929 23.6398 40.8566 23.2827C41.6241 22.9214 42.4781 22.717 43.4187 22.6693C44.3753 22.6208 45.1874 22.7428 45.8551 23.0354C46.5266 23.3237 47.0219 23.754 47.341 24.3262C47.664 24.8941 47.7829 25.5711 47.6978 26.3572L44.84 26.5021ZM52.0358 34.7812L53.4598 22.3296L58.6087 22.0686C59.5332 22.0217 60.2935 22.1141 60.8895 22.3459C61.4856 22.5776 61.9141 22.9226 62.1751 23.3808C62.4401 23.8389 62.536 24.3801 62.4629 25.0043C62.4021 25.4749 62.2505 25.9017 62.008 26.2847C61.7693 26.6635 61.4632 26.9853 61.0898 27.25C60.7161 27.5108 60.2986 27.7012 59.8372 27.8213L59.8192 27.9431C60.3187 27.9379 60.7655 28.0482 61.1598 28.2741C61.5581 28.4997 61.8609 28.8289 62.0682 29.2617C62.2753 29.6904 62.3436 30.2028 62.273 30.7987C62.1981 31.4674 61.9609 32.0739 61.5613 32.618C61.1656 33.1579 60.6296 33.5961 59.9536 33.9326C59.2773 34.2651 58.485 34.4543 57.5766 34.5004L52.0358 34.7812ZM55.3082 32.2035L57.1532 32.11C57.7923 32.0776 58.2805 31.93 58.6177 31.6671C58.9588 31.3999 59.1505 31.0477 59.1928 30.6103C59.229 30.2901 59.187 30.0182 59.0668 29.7946C58.9465 29.567 58.7565 29.3973 58.497 29.2855C58.2373 29.1697 57.9144 29.1216 57.5286 29.1412L55.6294 29.2375L55.3082 32.2035ZM55.8635 27.2973L57.5215 27.2133C57.8431 27.197 58.1358 27.1278 58.3996 27.0056C58.6674 26.8832 58.8845 26.715 59.051 26.5011C59.2215 26.2869 59.3215 26.034 59.351 25.7424C59.3984 25.3249 59.2874 25.0041 59.0182 24.78C58.7489 24.5559 58.3671 24.4564 57.8727 24.4814L56.1724 24.5676L55.8635 27.2973ZM65.9813 34.0744L62.7737 34.237L68.3639 21.5741L72.3372 21.3727L75.0793 33.6132L71.8718 33.7758L70.047 24.6078L69.9506 24.6127L65.9813 34.0744ZM66.1208 29.1953L72.8253 28.8554L72.5543 31.142L65.8499 31.4818L66.1208 29.1953ZM76.4088 33.5458L77.8328 21.0941L82.9335 20.8356C83.858 20.7887 84.6382 20.9164 85.2741 21.2186C85.9098 21.5169 86.3739 21.9688 86.6666 22.5746C86.959 23.1763 87.0563 23.9028 86.9584 24.754C86.8649 25.6131 86.5962 26.3541 86.1523 26.977C85.7122 27.5957 85.1282 28.0807 84.4005 28.4319C83.6768 28.7829 82.8447 28.9823 81.9042 29.0299L78.6785 29.1934L78.9573 26.8219L81.6282 26.6865C82.0744 26.6639 82.4573 26.586 82.777 26.453C83.0964 26.3159 83.3465 26.1219 83.5272 25.8709C83.7117 25.6158 83.8265 25.2956 83.8714 24.9105C83.9124 24.5256 83.8682 24.2115 83.7391 23.9682C83.6137 23.7207 83.4051 23.5418 83.1134 23.4317C82.8256 23.3173 82.4605 23.2714 82.0184 23.2938L80.5473 23.3684L79.3932 33.3945L76.4088 33.5458ZM84.0089 27.5027L86.4353 33.0376L83.1795 33.2026L80.8194 27.6644L84.0089 27.5027ZM87.7828 32.9693L89.2069 20.5176L94.3558 20.2566C95.2803 20.2097 96.0405 20.3022 96.6366 20.5339C97.2327 20.7656 97.6612 21.1106 97.9222 21.5689C98.1872 22.0269 98.2831 22.5681 98.21 23.1924C98.1492 23.6629 97.9976 24.0897 97.755 24.4727C97.5163 24.8515 97.2103 25.1733 96.8368 25.4381C96.4632 25.6988 96.0457 25.8892 95.5843 26.0093L95.5663 26.1311C96.0657 26.1259 96.5126 26.2363 96.9069 26.4621C97.3052 26.6877 97.608 27.0169 97.8153 27.4497C98.0224 27.8785 98.0907 28.3908 98.0201 28.9868C97.9452 29.6555 97.708 30.2619 97.3084 30.806C96.9126 31.3459 96.3767 31.7841 95.7007 32.1206C95.0244 32.4531 94.232 32.6424 93.3237 32.6884L87.7828 32.9693ZM91.0553 30.3916L92.9003 30.2981C93.5393 30.2657 94.0275 30.118 94.3648 29.8551C94.7059 29.588 94.8976 29.2357 94.9399 28.7983C94.976 28.4782 94.934 28.2063 94.8139 27.9827C94.6936 27.755 94.5036 27.5853 94.2441 27.4736C93.9843 27.3578 93.6615 27.3097 93.2757 27.3292L91.3765 27.4255L91.0553 30.3916ZM91.6106 25.4854L93.2686 25.4013C93.5902 25.385 93.8828 25.3158 94.1466 25.1936C94.4145 25.0712 94.6316 24.9031 94.7981 24.6891C94.9686 24.4749 95.0686 24.222 95.0981 23.9304C95.1455 23.5129 95.0345 23.1921 94.7652 22.968C94.496 22.7439 94.1141 22.6444 93.6197 22.6695L91.9195 22.7556L91.6106 25.4854ZM99.0574 32.3978L100.481 19.9461L109.091 19.5097L108.804 21.9542L103.179 22.2393L102.897 24.7924L108.082 24.5295L107.795 26.9801L102.61 27.2429L102.329 29.802L107.954 29.5169L107.667 31.9614L99.0574 32.3978ZM109.536 31.8666L110.96 19.4149L116.061 19.1564C116.985 19.1095 117.766 19.2372 118.401 19.5395C119.037 19.8377 119.501 20.2897 119.794 20.8954C120.086 21.4971 120.184 22.2236 120.086 23.0748C119.992 23.9339 119.724 24.6749 119.28 25.2978C118.84 25.9166 118.256 26.4015 117.528 26.7527C116.804 27.1037 115.972 27.3031 115.032 27.3507L111.806 27.5143L112.085 25.1427L114.756 25.0073C115.202 24.9847 115.585 24.9069 115.904 24.7738C116.224 24.6367 116.474 24.4427 116.655 24.1917C116.839 23.9366 116.954 23.6164 116.999 23.2313C117.04 22.8464 116.996 22.5323 116.866 22.289C116.741 22.0415 116.533 21.8627 116.241 21.7525C115.953 21.6382 115.588 21.5922 115.146 21.6146L113.675 21.6892L112.521 31.7153L109.536 31.8666ZM117.136 25.8236L119.563 31.3584L116.307 31.5234L113.947 25.9852L117.136 25.8236Z" fill="#5C56C6"/>
<path d="M53.0234 34.4739L54.4474 22.0222L59.5964 21.7612C60.5208 21.7143 61.2811 21.8067 61.8772 22.0385C62.4732 22.2702 62.9018 22.6152 63.1627 23.0734C63.4277 23.5315 63.5237 24.0727 63.4506 24.697C63.3898 25.1675 63.2381 25.5943 62.9956 25.9773C62.7569 26.3561 62.4508 26.6779 62.0774 26.9426C61.7037 27.2034 61.2862 27.3938 60.8249 27.5139L60.8069 27.6357C61.3063 27.6305 61.7532 27.7409 62.1474 27.9667C62.5457 28.1923 62.8485 28.5215 63.0558 28.9543C63.2629 29.383 63.3312 29.8954 63.2607 30.4913C63.1858 31.1601 62.9485 31.7665 62.549 32.3106C62.1532 32.8505 61.6173 33.2887 60.9412 33.6252C60.265 33.9577 59.4726 34.147 58.5642 34.193L53.0234 34.4739ZM56.2959 31.8962L58.1408 31.8026C58.7799 31.7702 59.2681 31.6226 59.6054 31.3597C59.9464 31.0925 60.1381 30.7403 60.1804 30.3029C60.2166 29.9827 60.1746 29.7108 60.0545 29.4872C59.9341 29.2596 59.7442 29.0899 59.4846 28.9781C59.2249 28.8624 58.9021 28.8142 58.5162 28.8338L56.617 28.9301L56.2959 31.8962ZM56.8511 26.9899L58.5092 26.9059C58.8307 26.8896 59.1234 26.8204 59.3872 26.6982C59.655 26.5758 59.8722 26.4076 60.0386 26.1937C60.2091 25.9795 60.3091 25.7266 60.3387 25.435C60.386 25.0175 60.2751 24.6967 60.0058 24.4726C59.7365 24.2485 59.3547 24.149 58.8603 24.174L57.1601 24.2602L56.8511 26.9899ZM66.9689 33.767L63.7614 33.9296L69.3516 21.2667L73.3248 21.0653L76.067 33.3058L72.8594 33.4684L71.0347 24.3004L70.9382 24.3053L66.9689 33.767ZM67.1085 28.8879L73.8129 28.548L73.542 30.8346L66.8375 31.1744L67.1085 28.8879ZM77.3964 33.2384L78.8204 20.7867L83.9211 20.5282C84.8456 20.4813 85.6258 20.609 86.2617 20.9112C86.8974 21.2095 87.3616 21.6615 87.6542 22.2672C87.9467 22.8689 88.0439 23.5954 87.946 24.4466C87.8526 25.3057 87.5839 26.0467 87.1399 26.6696C86.6998 27.2883 86.1159 27.7733 85.3882 28.1245C84.6645 28.4755 83.8324 28.6749 82.8918 28.7225L79.6662 28.886L79.9449 26.5145L82.6159 26.3791C83.062 26.3565 83.4449 26.2786 83.7646 26.1456C84.0841 26.0085 84.3342 25.8145 84.5149 25.5635C84.6994 25.3084 84.8141 24.9882 84.8591 24.6031C84.9 24.2182 84.8559 23.9041 84.7267 23.6608C84.6013 23.4133 84.3928 23.2345 84.1011 23.1243C83.8132 23.01 83.4482 22.964 83.006 22.9864L81.5349 23.061L80.3808 33.0871L77.3964 33.2384ZM84.9965 27.1954L87.4229 32.7302L84.1672 32.8952L81.8071 27.357L84.9965 27.1954ZM88.7705 32.6619L90.1945 20.2102L95.3434 19.9492C96.2679 19.9023 97.0282 19.9948 97.6242 20.2265C98.2203 20.4582 98.6488 20.8032 98.9098 21.2615C99.1748 21.7195 99.2708 22.2607 99.1976 22.885C99.1369 23.3555 98.9852 23.7823 98.7427 24.1653C98.504 24.5441 98.1979 24.8659 97.8245 25.1307C97.4508 25.3914 97.0333 25.5818 96.572 25.7019L96.5539 25.8237C97.0534 25.8186 97.5002 25.9289 97.8945 26.1547C98.2928 26.3803 98.5956 26.7095 98.8029 27.1423C99.01 27.5711 99.0783 28.0834 99.0078 28.6794C98.9329 29.3481 98.6956 29.9545 98.296 30.4986C97.9003 31.0385 97.3644 31.4767 96.6883 31.8132C96.012 32.1457 95.2197 32.335 94.3113 32.381L88.7705 32.6619ZM92.043 30.0842L93.8879 29.9907C94.527 29.9583 95.0152 29.8106 95.3524 29.5477C95.6935 29.2806 95.8852 28.9283 95.9275 28.491C95.9637 28.1708 95.9217 27.8989 95.8015 27.6753C95.6812 27.4476 95.4913 27.2779 95.2317 27.1662C94.972 27.0504 94.6492 27.0023 94.2633 27.0218L92.3641 27.1181L92.043 30.0842ZM92.5982 25.178L94.2562 25.0939C94.5778 25.0776 94.8705 25.0084 95.1343 24.8862C95.4021 24.7638 95.6192 24.5957 95.7857 24.3817C95.9562 24.1675 96.0562 23.9146 96.0858 23.623C96.1331 23.2055 96.0221 22.8847 95.7529 22.6606C95.4836 22.4365 95.1018 22.337 94.6074 22.3621L92.9072 22.4483L92.5982 25.178ZM100.045 32.0904L101.469 19.6387L110.079 19.2023L109.792 21.6468L104.166 21.9319L103.885 24.485L109.07 24.2222L108.783 26.6727L103.598 26.9355L103.317 29.4946L108.942 29.2095L108.655 31.654L100.045 32.0904ZM110.524 31.5592L111.948 19.1075L117.049 18.849C117.973 18.8021 118.753 18.9298 119.389 19.2321C120.025 19.5303 120.489 19.9823 120.782 20.588C121.074 21.1898 121.171 21.9162 121.073 22.7675C120.98 23.6265 120.711 24.3675 120.267 24.9904C119.827 25.6092 119.243 26.0941 118.516 26.4453C117.792 26.7963 116.96 26.9957 116.019 27.0434L112.794 27.2069L113.072 24.8353L115.743 24.6999C116.189 24.6773 116.572 24.5995 116.892 24.4664C117.211 24.3293 117.462 24.1353 117.642 23.8843C117.827 23.6292 117.942 23.309 117.986 22.9239C118.027 22.539 117.983 22.2249 117.854 21.9816C117.729 21.7341 117.52 21.5553 117.228 21.4451C116.941 21.3308 116.576 21.2848 116.133 21.3072L114.662 21.3818L113.508 31.408L110.524 31.5592ZM118.124 25.5162L120.55 31.051L117.295 31.216L114.934 25.6778L118.124 25.5162Z" fill="white"/>
<path d="M19.8048 16.2113L16.7998 17.2123L11.9025 10.7123C11.9025 10.7123 10.0142 7.79413 10.3048 5.71127C10.6298 3.38256 11.5398 1.8629 13.7998 1.21405C16.8261 0.3452 20.2498 2.20951 21.1998 5.21127C21.6045 6.48994 21.6293 8.91715 20.7998 10.2148C19.5763 12.129 17.3048 12.7113 17.3048 12.7113L19.8048 16.2113Z" fill="#5C56C6" stroke="#5C56C6" stroke-width="0.2"/>
<path d="M35.0381 37.0009L31.3207 38.1639C31.3207 38.1639 34.4277 40.5153 35.7718 41.2359C37.1908 41.9968 38.7633 41.7842 38.7633 41.7842L35.0381 37.0009Z" fill="#5C56C6"/>
<path d="M1 24.2148C0.998915 21.3121 2.57348 19.7115 5.29981 18.7148C6.66758 18.2148 9.26353 18.8246 11.7994 18.7151C14.1487 18.6136 15.4643 18.4879 17.7998 18.2148C20.3505 17.9167 21.3558 17.4722 24.2994 17.2151C29.9405 16.7223 38.7994 17.2151 38.7994 17.2151C38.7994 17.2151 43.5764 17.4427 45.7994 19.2151C46.4472 19.7315 47.2994 20.7151 47.2994 20.7151L18.7994 22.2151C18.5064 22.0197 18.7998 22.2148 18.2998 21.7148C17.7998 21.2148 17.7998 21.2148 17.2994 21.2151L12.7998 22.2148C12.7998 22.2148 13.0919 24.0806 12.7994 25.2151C12.1066 27.9024 10.0733 29.6304 7.29942 29.7151C4.12226 29.8121 1.00119 27.3935 1 24.2148Z" fill="#5C56C6" stroke="#5C56C6" stroke-width="0.2"/>
<circle cx="21.2002" cy="19.9141" r="1" fill="#06050E"/>
<path d="M4.2002 24.207C4.20235 22.5502 5.64335 21.207 7.3002 21.207C8.95921 21.207 10.3024 22.5558 10.3002 24.2148C10.298 25.8717 8.95705 27.0148 7.3002 27.0148C5.64119 27.0148 4.19804 25.866 4.2002 24.207Z" fill="#06050E" stroke="#06050E" stroke-width="0.2"/>
<path d="M13.8011 8.71484C12.5056 6.85371 13.2166 4.54874 14.9019 3.91586C16.2941 3.39307 17.6349 4.04243 18.4022 5.31621C19.2146 6.66468 19.09 8.81357 17.8028 9.71987C16.4862 10.6468 14.7209 10.0364 13.8011 8.71484Z" fill="#06050E" stroke="#06050E" stroke-width="0.2"/>
</svg>
